<?xml version="1.0" encoding="utf-8"?>
<svg xmlns="http://www.w3.org/2000/svg" width="751.11894" height="669.03003" viewBox="0 0 751.11894 669.03003" role="img" artist="Katerina Limpitsouni" source="https://undraw.co/">
  <path d="M 741.473 43.074 L 219.217 43.074 C 215.075 43.078 211.718 46.435 211.715 50.577 L 211.715 404.472 C 211.718 408.614 215.075 411.97 219.217 411.974 L 741.473 411.974 C 743.668 411.974 745.753 411.012 747.177 409.341 C 747.237 409.277 747.291 409.208 747.341 409.135 C 747.789 408.587 748.151 407.975 748.416 407.319 C 748.794 406.418 748.987 405.449 748.984 404.471 L 748.984 50.577 C 748.979 46.432 745.618 43.074 741.473 43.074 Z M 746.842 404.472 C 746.842 405.518 746.534 406.542 745.955 407.414 C 745.441 408.182 744.743 408.809 743.925 409.238 C 743.167 409.63 742.326 409.833 741.473 409.832 L 219.217 409.832 C 216.258 409.828 213.86 407.43 213.857 404.472 L 213.857 50.577 C 213.86 47.618 216.258 45.22 219.217 45.217 L 741.473 45.217 C 744.434 45.216 746.837 47.615 746.842 50.577 L 746.842 404.472 Z" fill="#3f3d56" style="stroke-width: 0.86;"/>
  <rect x="212.784" y="73.144" width="535.124" height="2.145" fill="#3f3d56" style="stroke-width: 0.86;"/>
  <circle cx="231.014" cy="59.16" r="6.434" fill="#3f3d56" style="stroke-width: 0.86;"/>
  <circle cx="249.513" cy="59.16" r="6.434" fill="#3f3d56" style="stroke-width: 0.86;"/>
  <circle cx="268.012" cy="59.16" r="6.434" fill="#3f3d56" style="stroke-width: 0.86;"/>
  <path d="M 684.451 228.635 L 267.163 228.635 C 259.088 228.626 252.545 222.083 252.536 214.009 L 252.536 125.389 C 252.545 117.314 259.088 110.771 267.163 110.762 L 684.451 110.762 C 692.525 110.771 699.068 117.314 699.077 125.389 L 699.077 214.009 C 699.068 222.083 692.525 228.626 684.451 228.635 Z M 267.163 112.483 C 260.038 112.491 254.265 118.264 254.257 125.389 L 254.257 214.009 C 254.265 221.133 260.038 226.906 267.163 226.914 L 684.451 226.914 C 691.575 226.906 697.349 221.133 697.357 214.009 L 697.357 125.389 C 697.349 118.264 691.575 112.491 684.451 112.483 L 267.163 112.483 Z" fill="#f2f2f2" style="stroke-width: 0.86;"/>
  <path d="M 359.224 388.667 L 267.163 388.667 C 259.088 388.658 252.545 382.115 252.536 374.041 L 252.536 308.651 C 252.545 300.577 259.088 294.034 267.163 294.025 L 359.224 294.025 C 367.298 294.034 373.842 300.577 373.851 308.651 L 373.851 374.041 C 373.842 382.115 367.298 388.658 359.224 388.667 Z M 267.163 295.745 C 260.038 295.754 254.265 301.527 254.257 308.651 L 254.257 374.041 C 254.265 381.165 260.038 386.939 267.163 386.947 L 359.224 386.947 C 366.348 386.939 372.122 381.165 372.13 374.041 L 372.13 308.651 C 372.122 301.527 366.348 295.754 359.224 295.745 L 267.163 295.745 Z" fill="#f2f2f2" style="stroke-width: 0.86;"/>
  <path d="M 684.451 388.667 L 592.389 388.667 C 584.315 388.658 577.772 382.115 577.763 374.041 L 577.763 308.651 C 577.772 300.577 584.315 294.034 592.389 294.025 L 684.451 294.025 C 692.525 294.034 699.068 300.577 699.077 308.651 L 699.077 374.041 C 699.068 382.115 692.525 388.658 684.451 388.667 Z M 592.389 295.745 C 585.265 295.754 579.492 301.527 579.483 308.651 L 579.483 374.041 C 579.492 381.165 585.265 386.939 592.389 386.947 L 684.451 386.947 C 691.575 386.939 697.349 381.165 697.357 374.041 L 697.357 308.651 C 697.349 301.527 691.575 295.754 684.451 295.745 L 592.389 295.745 Z" fill="#f2f2f2" style="stroke-width: 0.86;"/>
  <path d="M 528.721 388.667 L 436.659 388.667 C 428.585 388.658 422.042 382.115 422.032 374.041 L 422.032 308.651 C 422.042 300.577 428.585 294.034 436.659 294.025 L 528.721 294.025 C 536.795 294.034 543.338 300.577 543.347 308.651 L 543.347 374.041 C 543.338 382.115 536.795 388.658 528.721 388.667 Z M 436.659 295.745 C 429.535 295.754 423.761 301.527 423.753 308.651 L 423.753 374.041 C 423.761 381.165 429.535 386.939 436.659 386.947 L 528.721 386.947 C 535.845 386.939 541.618 381.165 541.626 374.041 L 541.626 308.651 C 541.618 301.527 535.845 295.754 528.721 295.745 L 436.659 295.745 Z" fill="#f2f2f2" style="stroke-width: 0.86;"/>
  <rect x="615.582" y="59.339" width="1.721" height="453.766" transform="matrix(0.237656, -0.971349, 0.971349, 0.237656, 53.311386, 700.312012)" fill="#f2f2f2" style="stroke-width: 0.86;"/>
  <rect x="389.466" y="285.507" width="449.899" height="1.721" transform="matrix(0.970657, -0.240467, 0.240467, 0.970657, -189.442139, 39.48027)" fill="#f2f2f2" style="stroke-width: 0.86;"/>
  <path d="M 701.659 258.318 L 284.37 258.318 C 276.534 258.31 270.183 251.959 270.174 244.122 L 270.174 155.502 C 270.183 147.665 276.534 141.314 284.37 141.306 L 701.659 141.306 C 709.495 141.315 715.846 147.665 715.855 155.502 L 715.855 244.122 C 715.846 251.959 709.495 258.309 701.659 258.318 Z" fill="#fff" style="stroke-width: 0.86;"/>
  <rect x="620.157" y="388.343" width="1.721" height="139.855" transform="matrix(0.615066, -0.788475, 0.788475, 0.615066, -260.892212, 549.388367)" fill="#f2f2f2" style="stroke-width: 0.86;"/>
  <rect x="552.612" y="457.931" width="139.377" height="1.721" transform="matrix(0.780797, -0.624784, 0.624784, 0.780797, -288.844543, 372.703033)" fill="#f2f2f2" style="stroke-width: 0.86;"/>
  <rect x="450.66" y="388.343" width="1.721" height="139.855" transform="matrix(0.615066, -0.788475, 0.788475, 0.615066, -326.137238, 415.744476)" fill="#f2f2f2" style="stroke-width: 0.86;"/>
  <rect x="383.116" y="457.931" width="139.377" height="1.721" transform="matrix(0.780797, -0.624784, 0.624784, 0.780797, -325.998596, 266.804291)" fill="#f2f2f2" style="stroke-width: 0.86;"/>
  <rect x="775.888" y="388.343" width="1.721" height="139.855" transform="matrix(0.615066, -0.788475, 0.788475, 0.615066, -200.946259, 672.177979)" fill="#f2f2f2" style="stroke-width: 0.86;"/>
  <rect x="708.342" y="457.931" width="139.377" height="1.721" transform="matrix(0.780797, -0.624784, 0.624784, 0.780797, -254.708038, 470.000854)" fill="#f2f2f2" style="stroke-width: 0.86;"/>
  <path d="M 541.626 451.046 L 449.565 451.046 C 441.728 451.037 435.377 444.686 435.368 436.849 L 435.368 371.46 C 435.377 363.623 441.728 357.272 449.565 357.263 L 541.626 357.263 C 549.463 357.272 555.814 363.623 555.823 371.46 L 555.823 436.849 C 555.814 444.686 549.463 451.037 541.626 451.046 Z" style="stroke-width: 0.86; fill: rgb(47, 46, 65);"/>
  <path d="M 589.71 452.336 L 401.285 452.336 C 400.623 452.336 400.209 451.619 400.54 451.046 C 400.693 450.779 400.978 450.615 401.285 450.615 L 589.71 450.615 C 590.372 450.615 590.786 451.332 590.455 451.906 C 590.301 452.172 590.017 452.336 589.71 452.336 Z" fill="#ccc" style="stroke-width: 0.86;"/>
  <path d="M 191.35 497.937 L 2.925 497.937 C 2.263 497.937 1.849 497.22 2.18 496.646 C 2.334 496.38 2.618 496.216 2.925 496.216 L 191.35 496.216 C 192.013 496.216 192.426 496.933 192.095 497.506 C 191.942 497.773 191.658 497.937 191.35 497.937 Z" fill="#ccc" style="stroke-width: 0.86;"/>
  <path d="M 507.6 399.422 L 483.51 399.422 C 478.211 399.422 474.899 393.686 477.549 389.098 C 478.778 386.968 481.05 385.656 483.51 385.656 L 507.6 385.656 C 512.899 385.656 516.211 391.392 513.561 395.981 C 512.332 398.11 510.06 399.422 507.6 399.422 Z" fill="#fff" style="stroke-width: 0.86;"/>
  <path d="M 521.837 422.653 L 469.354 422.653 C 464.055 422.653 460.744 416.917 463.393 412.328 C 464.622 410.198 466.895 408.886 469.354 408.886 L 521.837 408.886 C 527.136 408.886 530.448 414.622 527.798 419.211 C 526.569 421.341 524.297 422.653 521.837 422.653 Z" fill="#fff" style="stroke-width: 0.86;"/>
  <path d="M 373.851 401.143 L 281.789 401.143 C 273.952 401.134 267.602 394.783 267.593 386.947 L 267.593 321.557 C 267.602 313.72 273.952 307.37 281.789 307.361 L 373.851 307.361 C 381.687 307.37 388.038 313.72 388.047 321.557 L 388.047 386.947 C 388.038 394.783 381.687 401.134 373.851 401.143 Z" style="stroke-width: 0.86; fill: rgb(47, 46, 65);"/>
  <path d="M 339.825 349.52 L 315.734 349.52 C 310.435 349.52 307.124 343.784 309.773 339.195 C 311.002 337.065 313.275 335.754 315.734 335.754 L 339.825 335.754 C 345.123 335.754 348.435 341.489 345.786 346.078 C 344.556 348.208 342.284 349.52 339.825 349.52 Z" fill="#fff" style="stroke-width: 0.86;"/>
  <path d="M 354.062 372.75 L 301.578 372.75 C 296.279 372.75 292.968 367.014 295.617 362.426 C 296.847 360.296 299.119 358.984 301.578 358.984 L 354.062 358.984 C 359.36 358.984 362.672 364.72 360.023 369.309 C 358.793 371.438 356.521 372.75 354.062 372.75 Z" fill="#fff" style="stroke-width: 0.86;"/>
  <path d="M 704.24 426.094 L 612.178 426.094 C 604.341 426.085 597.991 419.735 597.982 411.898 L 597.982 346.508 C 597.991 338.672 604.341 332.321 612.178 332.312 L 704.24 332.312 C 712.077 332.321 718.427 338.672 718.436 346.508 L 718.436 411.898 C 718.427 419.735 712.077 426.085 704.24 426.094 Z" fill="#e6e6e6" style="stroke-width: 0.86;"/>
  <path d="M 670.214 374.471 L 646.123 374.471 C 640.824 374.471 637.513 368.735 640.162 364.146 C 641.392 362.017 643.664 360.705 646.123 360.705 L 670.214 360.705 C 675.512 360.705 678.824 366.441 676.175 371.029 C 674.945 373.159 672.673 374.471 670.214 374.471 Z" fill="#fff" style="stroke-width: 0.86;"/>
  <path d="M 684.451 397.701 L 631.967 397.701 C 626.669 397.701 623.357 391.966 626.006 387.377 C 627.236 385.247 629.508 383.935 631.967 383.935 L 684.451 383.935 C 689.749 383.935 693.061 389.671 690.412 394.26 C 689.182 396.39 686.91 397.701 684.451 397.701 Z" fill="#fff" style="stroke-width: 0.86;"/>
  <polygon points="261.338 341.292 261.338 330.743 220.652 325.725 220.653 341.293 261.338 341.292" fill="#a0616a" style="stroke-width: 0.86;"/>
  <path d="M 248.153 320.572 L 281.304 320.572 C 281.304 320.572 281.304 320.572 281.304 320.572 L 281.304 333.38 C 281.304 333.38 281.304 333.38 281.304 333.38 L 260.962 333.38 C 253.888 333.38 248.153 327.646 248.153 320.572 C 248.153 320.572 248.153 320.572 248.153 320.572 Z" fill="#2f2e41" style="stroke-width: 0.86; transform-box: fill-box; transform-origin: 50% 50%;" transform="matrix(0.000046, 1, -1, 0.000046, -0.000005, -0.000046)"/>
  <polygon points="80.149 486.108 90.698 486.107 95.715 445.421 80.148 445.422 80.149 486.108" fill="#a0616a" style="stroke-width: 0.86;"/>
  <path d="M 77.889 483.093 L 111.041 483.093 C 111.041 483.093 111.041 483.093 111.041 483.093 L 111.041 495.902 C 111.041 495.902 111.041 495.902 111.041 495.902 L 90.698 495.902 C 83.624 495.902 77.889 490.167 77.889 483.093 C 77.889 483.093 77.889 483.093 77.889 483.093 Z" fill="#2f2e41" style="stroke-width: 0.86; transform-box: fill-box; transform-origin: 50% 50%;" transform="matrix(-1, 0.000046, -0.000046, -1, 0.000009, -0.000027)"/>
  <path d="M 93.194 471.446 C 93.069 471.446 92.942 471.44 92.815 471.429 L 78.448 470.233 C 75.936 470.025 74.106 467.761 74.428 465.261 L 81.884 407.272 C 81.913 407.047 81.913 406.819 81.884 406.594 L 70.041 313.13 C 69.71 310.512 71.729 308.189 74.367 308.151 L 116.262 307.557 C 116.475 307.556 116.688 307.569 116.9 307.594 L 117.015 307.626 L 125.073 311.114 L 242.225 324.016 C 244.428 324.308 246.076 326.182 246.083 328.404 L 246.083 343.488 C 246.083 346.133 243.777 348.187 241.149 347.882 L 173.469 339.993 C 173.127 339.952 172.78 339.978 172.448 340.071 L 118.928 354.822 C 117.932 355.098 117.184 355.921 117.003 356.938 L 97.541 467.788 C 97.175 469.902 95.34 471.447 93.194 471.446 Z" fill="#2f2e41" style="stroke-width: 0.86;"/>
  <circle cx="89.761" cy="193.997" r="28.88" fill="#2f2e41" style="stroke-width: 0.86;"/>
  <circle cx="79.658" cy="163.601" r="11.95" fill="#2f2e41" style="stroke-width: 0.86;"/>
  <path d="M 63.725 157.128 C 63.725 151.01 68.345 145.88 74.43 145.242 C 74.017 145.199 73.601 145.178 73.185 145.178 C 63.986 145.185 58.245 155.149 62.851 163.112 C 64.985 166.801 68.923 169.075 73.185 169.078 C 73.601 169.078 74.017 169.057 74.43 169.014 C 68.345 168.376 63.725 163.246 63.725 157.128 Z" fill="#2f2e41" style="stroke-width: 0.86;"/>
  <path d="M 93.163 323.854 C 85.989 323.854 78.009 321.868 69.702 316.329 L 69.561 316.235 L 69.522 316.071 C 69.445 315.747 61.801 283.396 61.651 258.34 C 61.557 249.412 65.788 240.991 73.007 235.738 C 79.946 230.541 88.972 229.023 97.229 231.666 C 97.767 231.836 98.306 232.019 98.846 232.215 C 110.442 236.544 117.72 248.084 116.63 260.413 C 115.54 273.653 115.104 297.765 124.421 310.505 L 124.639 310.803 L 124.378 311.064 C 124.198 311.243 111.239 323.854 93.163 323.854 Z" fill="#ccc" style="stroke-width: 0.86;"/>
  <circle cx="89.679" cy="203.189" r="21.132" fill="#a0616a" style="stroke-width: 0.86;"/>
  <path d="M 63.794 201.795 C 65.086 207.024 61.336 212.15 55.962 212.503 L 47.808 242.147 L 37.28 230.129 L 46.637 203.821 C 46.641 197.124 53.893 192.944 59.69 196.295 C 61.754 197.489 63.238 199.477 63.794 201.795 Z" fill="#a0616a" style="stroke-width: 0.86;"/>
  <path d="M 31.741 267.117 C 26.095 267.095 22.164 261.502 24.056 256.182 L 39.556 212.628 C 40.318 210.523 42.556 209.344 44.723 209.905 L 56.019 212.895 C 58.481 213.547 59.845 216.178 58.959 218.565 L 48.997 245.418 L 65.895 240.043 C 73.956 237.479 81.77 244.603 79.96 252.866 C 78.984 257.321 75.356 260.711 70.845 261.383 L 32.974 267.024 C 32.566 267.086 32.154 267.117 31.741 267.117 Z" fill="#ccc" style="stroke-width: 0.86;"/>
  <ellipse cx="93.121" cy="187.874" rx="19.917" ry="11.95" fill="#2f2e41" style="stroke-width: 0.86;"/>
  <path d="M 153.75 330.879 C 148.552 329.466 145.896 323.697 148.201 318.829 L 126.26 297.291 L 141.88 293.934 L 160.321 314.902 C 166.171 318.161 166.299 326.53 160.551 329.967 C 158.505 331.19 156.046 331.52 153.75 330.879 Z" fill="#a0616a" style="stroke-width: 0.86;"/>
  <path d="M 143.622 319.161 C 142.432 319.164 141.303 318.635 140.545 317.718 L 116.593 288.659 L 97.846 252.656 C 96.656 248.985 97.319 244.964 99.625 241.869 C 101.838 238.861 105.379 237.123 109.112 237.214 C 110.042 237.233 110.967 237.34 111.877 237.531 C 115.658 238.38 118.754 241.084 120.103 244.717 L 135.984 282.026 L 155.016 306.035 C 156.368 307.749 156.091 310.231 154.396 311.606 L 146.114 318.284 C 145.408 318.853 144.528 319.163 143.622 319.161 Z" fill="#ccc" style="stroke-width: 0.86;"/>
  <path d="M 752.323 427.385 L 563.898 427.385 C 563.236 427.385 562.822 426.668 563.153 426.094 C 563.307 425.828 563.591 425.664 563.898 425.664 L 752.323 425.664 C 752.986 425.664 753.4 426.381 753.068 426.955 C 752.915 427.221 752.631 427.385 752.323 427.385 Z" fill="#ccc" style="stroke-width: 0.86;"/>
  <path d="M 586.599 256.8 L 586.599 257.888 L 402.734 257.888 L 402.734 256.75 L 403.724 255.349 L 462.015 173.056 C 463.177 171.445 465.576 171.445 466.738 173.056 L 505.826 228.239 L 533.651 189.302 C 534.814 187.699 537.202 187.699 538.366 189.302 L 585.61 255.408 L 586.599 256.8 Z" style="stroke-width: 0.86; fill: rgb(47, 46, 65);"/>
  <circle cx="402.353" cy="180.646" r="21.401" style="stroke-width: 0.86; fill: rgb(47, 46, 65);"/>
  <path d="M 701.659 258.749 L 284.37 258.749 C 276.296 258.74 269.753 252.196 269.744 244.122 L 269.744 155.502 C 269.753 147.428 276.296 140.885 284.37 140.876 L 701.659 140.876 C 709.733 140.885 716.276 147.428 716.285 155.502 L 716.285 244.122 C 716.276 252.196 709.733 258.74 701.659 258.749 Z M 284.37 142.596 C 277.246 142.604 271.473 148.378 271.465 155.502 L 271.465 244.122 C 271.473 251.247 277.246 257.02 284.37 257.028 L 701.659 257.028 C 708.783 257.02 714.556 251.247 714.564 244.122 L 714.564 155.502 C 714.556 148.378 708.783 142.604 701.659 142.596 L 284.37 142.596 Z" fill="#3f3d56" style="stroke-width: 0.86;"/>
</svg>