<?xml version="1.0" encoding="utf-8"?>
<svg xmlns="http://www.w3.org/2000/svg" width="751.11894" height="669.03003" viewBox="0 0 751.11894 669.03003" role="img" artist="Katerina Limpitsouni" source="https://undraw.co/">
  <defs>
    <linearGradient id="af83dc26-9572-4816-b7a1-1af4f72ff554-677" x1="678.2" y1="821.79" x2="678.2" y2="493.4" gradientTransform="matrix(0.73385, -0.029603, 0.029603, 0.73385, -80.341156, -7.994408)" gradientUnits="userSpaceOnUse">
      <stop offset="0" stop-color="gray" stop-opacity="0.25"/>
      <stop offset="0.54" stop-color="gray" stop-opacity="0.12"/>
      <stop offset="1" stop-color="gray" stop-opacity="0.1"/>
    </linearGradient>
  </defs>
  <title>bug fixing</title>
  <ellipse cx="343.817" cy="497.54" rx="312.14" ry="24.237" opacity="0.1" style="stroke-width: 0.734; fill: rgb(73, 73, 73);"/>
  <g opacity="0.1" transform="matrix(0.734447, 0, 0, 0.734447, -0.367229, 12.158821)">
    <path d="M933.7,529.93c-2.54-7.71-12.84-11.26-23-7.92a24.76,24.76,0,0,0-4.23,1.83c-.65-.18-1.32-.34-2-.46a22.42,22.42,0,0,0,.63-6.79A24.6,24.6,0,0,0,916,495.12a24.63,24.63,0,0,0,10.86-21.47,23.76,23.76,0,0,0,8.23-9.32c4.9-9.7,2.87-20.6-4.54-24.35s-17.4,1.08-22.3,10.78a23.69,23.69,0,0,0-2.63,12.15,24.63,24.63,0,0,0-10.86,21.47,24.63,24.63,0,0,0-10.86,21.47A24.64,24.64,0,0,0,873,527.33a23.76,23.76,0,0,0-8.23,9.32,25.46,25.46,0,0,0-2.08,5.74,21.18,21.18,0,0,0-4.44-4.73,25.38,25.38,0,0,0-1-4.5c-3.34-10.17-12.3-16.37-20-13.83s-11.26,12.83-7.92,23a23.07,23.07,0,0,0,7.56,11.08,25.38,25.38,0,0,0,1,4.5c1.94,5.9,5.77,10.46,10.15,12.75a23.23,23.23,0,0,0-.83,3.9,25.29,25.29,0,0,0-7.54,14.91,25.27,25.27,0,0,0-7.54,14.92,24.63,24.63,0,0,0-5,6.81c-4.91,9.7-2.88,20.61,4.53,24.35s17.4-1.07,22.31-10.78a24.62,24.62,0,0,0,2.5-8.09,25.29,25.29,0,0,0,7.54-14.91,25.27,25.27,0,0,0,7.54-14.92A25.21,25.21,0,0,0,879,571.94,25.21,25.21,0,0,0,886.56,557a24.11,24.11,0,0,0,3.39-4,23.46,23.46,0,0,0,12.27-.77,24.76,24.76,0,0,0,4.23-1.83,23.2,23.2,0,0,0,13.42-.48C930,546.61,936.23,537.65,933.7,529.93Z" transform="translate(-88.65 -57.09)" style="fill: rgb(73, 73, 73);"/>
    <g opacity="0.1">
      <path d="M915.77,499.53a21.5,21.5,0,0,1-3.44,2.75,23,23,0,0,1-1.11,8.43,26.18,26.18,0,0,0,2.1-3.43A24.64,24.64,0,0,0,915.77,499.53Z" transform="translate(-88.65 -57.09)" style="fill: rgb(73, 73, 73);"/>
      <path d="M926.63,478.06a21.5,21.5,0,0,1-3.44,2.75,23,23,0,0,1-1.11,8.43,25.65,25.65,0,0,0,2.1-3.44A24.85,24.85,0,0,0,926.63,478.06Z" transform="translate(-88.65 -57.09)" style="fill: rgb(73, 73, 73);"/>
      <path d="M902,470.07a21.91,21.91,0,0,1,.17-4.41,24.93,24.93,0,0,0-4.78,6.57,25.63,25.63,0,0,0-1.52,3.73A22.75,22.75,0,0,1,902,470.07Z" transform="translate(-88.65 -57.09)" style="fill: rgb(73, 73, 73);"/>
      <path d="M833.07,600a23.59,23.59,0,0,1,2.95-3.38,22.92,22.92,0,0,1,.87-4,25.09,25.09,0,0,0-2.29,3.71A25.59,25.59,0,0,0,833.07,600Z" transform="translate(-88.65 -57.09)" style="fill: rgb(73, 73, 73);"/>
      <path d="M840.61,585.1a23.59,23.59,0,0,1,2.95-3.38,23,23,0,0,1,.83-3.9l0,0a25.68,25.68,0,0,0-2.2,3.59A26.76,26.76,0,0,0,840.61,585.1Z" transform="translate(-88.65 -57.09)" style="fill: rgb(73, 73, 73);"/>
      <path d="M904.9,521a20.82,20.82,0,0,1-3.43,2.74,22.45,22.45,0,0,1-.63,6.79,18.75,18.75,0,0,1,2,.46,24.76,24.76,0,0,1,4.23-1.83c10.18-3.34,20.47.21,23,7.92a11.68,11.68,0,0,1,.32,6c3.35-3.94,4.74-8.74,3.3-13.14-2.54-7.71-12.84-11.26-23-7.92a24.76,24.76,0,0,0-4.23,1.83c-.65-.18-1.32-.34-2-.46C904.65,522.59,904.79,521.8,904.9,521Z" transform="translate(-88.65 -57.09)" style="fill: rgb(73, 73, 73);"/>
      <path d="M829.35,607.49a25.09,25.09,0,0,0-2.29,3.71,26.56,26.56,0,0,0-1.54,3.74,24.48,24.48,0,0,1,3-3.4A22.92,22.92,0,0,1,829.35,607.49Z" transform="translate(-88.65 -57.09)" style="fill: rgb(73, 73, 73);"/>
      <path d="M891.09,491.54a22,22,0,0,1,.17-4.41,24.93,24.93,0,0,0-4.78,6.57,25.63,25.63,0,0,0-1.52,3.73A22.75,22.75,0,0,1,891.09,491.54Z" transform="translate(-88.65 -57.09)" style="fill: rgb(73, 73, 73);"/>
      <path d="M875.4,579.1a24.29,24.29,0,0,1-1,4.38,26.67,26.67,0,0,0,2.09-3.44,25.49,25.49,0,0,0,1.63-4A24.23,24.23,0,0,1,875.4,579.1Z" transform="translate(-88.65 -57.09)" style="fill: rgb(73, 73, 73);"/>
      <path d="M860.32,608.92a24.15,24.15,0,0,1-1,4.38,25.65,25.65,0,0,0,2.1-3.44,26.47,26.47,0,0,0,1.63-4A23.57,23.57,0,0,1,860.32,608.92Z" transform="translate(-88.65 -57.09)" style="fill: rgb(73, 73, 73);"/>
      <path d="M867.86,594a24.11,24.11,0,0,1-1,4.38A26.67,26.67,0,0,0,869,595a25.49,25.49,0,0,0,1.63-4A24.23,24.23,0,0,1,867.86,594Z" transform="translate(-88.65 -57.09)" style="fill: rgb(73, 73, 73);"/>
      <path d="M882.94,564.19a24,24,0,0,1-1,4.37,25.89,25.89,0,0,0,2.09-3.43,25.48,25.48,0,0,0,1.64-4.07A23.22,23.22,0,0,1,882.94,564.19Z" transform="translate(-88.65 -57.09)" style="fill: rgb(73, 73, 73);"/>
      <path d="M833.57,526.48c7.72-2.53,16.68,3.66,20,13.83a25.68,25.68,0,0,1,1,4.51,21.18,21.18,0,0,1,4.44,4.73,25.53,25.53,0,0,1,2.08-5.75c.35-.68.73-1.33,1.12-2a21.07,21.07,0,0,0-4-4.18,25.38,25.38,0,0,0-1-4.5c-3.34-10.17-12.3-16.37-20-13.83-4.4,1.44-7.44,5.41-8.62,10.43A11.69,11.69,0,0,1,833.57,526.48Z" transform="translate(-88.65 -57.09)" style="fill: rgb(73, 73, 73);"/>
      <path d="M869.37,534.48a21.85,21.85,0,0,1,.18-4.4,24.73,24.73,0,0,0-4.79,6.57,25.07,25.07,0,0,0-1.52,3.72A23,23,0,0,1,869.37,534.48Z" transform="translate(-88.65 -57.09)" style="fill: rgb(73, 73, 73);"/>
      <path d="M880.23,513a21.85,21.85,0,0,1,.18-4.4,24.52,24.52,0,0,0-4.79,6.56,25.63,25.63,0,0,0-1.52,3.73A22.75,22.75,0,0,1,880.23,513Z" transform="translate(-88.65 -57.09)" style="fill: rgb(73, 73, 73);"/>
      <path d="M852.78,623.83a24.25,24.25,0,0,1-1,4.39,25.73,25.73,0,0,0,3.73-7.49A23.57,23.57,0,0,1,852.78,623.83Z" transform="translate(-88.65 -57.09)" style="fill: rgb(73, 73, 73);"/>
    </g>
    <path d="M948.52,430.71a23.68,23.68,0,0,0,8.23-9.32c4.91-9.7,2.88-20.61-4.53-24.36s-17.4,1.08-22.31,10.79A23.68,23.68,0,0,0,927.29,420a24.63,24.63,0,0,0-10.86,21.47,23.61,23.61,0,0,0-8.23,9.32,24.69,24.69,0,0,0-1.51,3.69,20.85,20.85,0,0,1,10.77-8A12.24,12.24,0,0,0,933,454.32a20.85,20.85,0,0,1,0,13.41,25.48,25.48,0,0,0,2.08-3.4,23.68,23.68,0,0,0,2.62-12.15,24.57,24.57,0,0,0,10.86-21.47Z" transform="translate(-88.65 -57.09)" style="fill: rgb(73, 73, 73);"/>
    <path d="M1067.88,293.07a72,72,0,0,0,8.72-4.83l-32.33-23.62,38,19.57a72.13,72.13,0,0,0,27-50.31l-64.58.66,64.72-10.82A72,72,0,1,0,966.83,242a72.09,72.09,0,0,0-13.26,8l33.75,46.93L946.8,255.85a72.08,72.08,0,0,0-20.17,65.61,72,72,0,1,0,101.05,51.1,72,72,0,0,0,40.2-79.49Z" transform="translate(-88.65 -57.09)" style="fill: rgb(73, 73, 73);"/>
    <path d="M933,274.75a71.77,71.77,0,0,0-6.35,46.71,72,72,0,1,0,101.05,51.1C1041.83,366,936.62,267.54,933,274.75Z" transform="translate(-88.65 -57.09)" opacity="0.1" style="fill: rgb(73, 73, 73);"/>
    <circle cx="925.49" cy="102.72" r="10.69" style="fill: rgb(73, 73, 73);"/>
    <circle cx="987.93" cy="109.58" r="10.69" style="fill: rgb(73, 73, 73);"/>
    <circle cx="1012.01" cy="205.64" r="10.69" style="fill: rgb(73, 73, 73);"/>
    <circle cx="979.51" cy="253.61" r="10.69" style="fill: rgb(73, 73, 73);"/>
    <circle cx="935.11" cy="353.24" r="10.69" style="fill: rgb(73, 73, 73);"/>
    <circle cx="935.11" cy="353.24" r="10.69" opacity="0.1" style="fill: rgb(73, 73, 73);"/>
    <circle cx="836.39" cy="240.4" r="10.69" style="fill: rgb(73, 73, 73);"/>
    <circle cx="836.39" cy="240.4" r="10.69" opacity="0.1" style="fill: rgb(73, 73, 73);"/>
    <path d="M913.64,473.32c-7.11-3.59-9.26-13.76-5.11-23.14-.22.38-.43.77-.63,1.18-4.91,9.7-2.88,20.6,4.53,24.35s17.4-1.08,22.3-10.78c.21-.4.39-.81.57-1.21C930.21,472.63,920.74,476.92,913.64,473.32Z" transform="translate(-88.65 -57.09)" opacity="0.1" style="fill: rgb(73, 73, 73);"/>
    <path d="M903.08,494.2c-7.1-3.59-9.26-13.76-5.1-23.15-.22.39-.44.78-.64,1.18-4.91,9.7-2.88,20.61,4.53,24.35s17.4-1.07,22.31-10.78c.2-.4.39-.8.57-1.21C919.65,493.5,910.19,497.79,903.08,494.2Z" transform="translate(-88.65 -57.09)" opacity="0.1" style="fill: rgb(73, 73, 73);"/>
    <path d="M892.52,515.07c-7.1-3.59-9.26-13.76-5.1-23.14-.22.38-.44.77-.64,1.18-4.91,9.7-2.87,20.6,4.54,24.35s17.39-1.08,22.3-10.78c.2-.4.39-.81.57-1.21C909.1,514.38,899.63,518.67,892.52,515.07Z" transform="translate(-88.65 -57.09)" opacity="0.1" style="fill: rgb(73, 73, 73);"/>
    <path d="M882,536c-7.11-3.59-9.26-13.76-5.11-23.14-.22.38-.43.77-.64,1.17-4.9,9.7-2.87,20.61,4.54,24.36s17.4-1.08,22.3-10.79c.21-.4.39-.8.57-1.21C898.54,535.25,889.07,539.54,882,536Z" transform="translate(-88.65 -57.09)" opacity="0.1" style="fill: rgb(73, 73, 73);"/>
    <path d="M871.41,556.82c-7.11-3.59-9.26-13.76-5.11-23.14-.22.38-.43.77-.63,1.18-4.91,9.7-2.88,20.6,4.53,24.35s17.4-1.08,22.31-10.78c.2-.4.39-.81.57-1.21C888,556.13,878.51,560.42,871.41,556.82Z" transform="translate(-88.65 -57.09)" opacity="0.1" style="fill: rgb(73, 73, 73);"/>
    <path d="M860.85,577.7c-7.1-3.59-9.26-13.76-5.1-23.14-.22.38-.44.77-.64,1.17-4.91,9.7-2.88,20.61,4.54,24.36S877,579,882,569.3c.2-.4.39-.8.57-1.21C877.42,577,868,581.29,860.85,577.7Z" transform="translate(-88.65 -57.09)" opacity="0.1" style="fill: rgb(73, 73, 73);"/>
    <path d="M850.29,598.57c-7.1-3.59-9.26-13.76-5.1-23.14-.22.39-.43.77-.64,1.18-4.9,9.7-2.87,20.6,4.54,24.35s17.4-1.08,22.3-10.78c.21-.4.39-.81.57-1.21C866.87,597.88,857.4,602.17,850.29,598.57Z" transform="translate(-88.65 -57.09)" opacity="0.1" style="fill: rgb(73, 73, 73);"/>
    <path d="M839.74,619.45c-7.11-3.59-9.26-13.76-5.11-23.14q-.33.57-.63,1.17c-4.91,9.7-2.88,20.61,4.53,24.36s17.4-1.08,22.31-10.79c.2-.4.38-.8.56-1.21C856.31,618.75,846.84,623,839.74,619.45Z" transform="translate(-88.65 -57.09)" opacity="0.1" style="fill: rgb(73, 73, 73);"/>
    <path d="M832.8,633.17c-7.1-3.6-9.26-13.76-5.1-23.15-.22.39-.44.78-.64,1.18-4.91,9.7-2.88,20.61,4.53,24.35s17.4-1.07,22.31-10.78c.2-.4.39-.8.57-1.21C849.37,632.47,839.9,636.76,832.8,633.17Z" transform="translate(-88.65 -57.09)" opacity="0.1" style="fill: rgb(73, 73, 73);"/>
    <path d="M1023.59,540.26a37.4,37.4,0,0,0,2-9.79,5.34,5.34,0,1,0-.81-10.62,37.31,37.31,0,0,0-19.64-25.31,5.34,5.34,0,1,0-9.54-4.82,5,5,0,0,0-.48,1.43A37.49,37.49,0,0,0,962.25,501a37.64,37.64,0,0,0-9.82-.29l-4.33,19.71-.26-19a37.42,37.42,0,1,0,20,72,5.28,5.28,0,0,0,2.25,2.16,5.34,5.34,0,0,0,7.32-6.88,37.35,37.35,0,0,0,4.8-3.92,37.45,37.45,0,0,0,39.31-19.83l-20.15-3.39Z" transform="translate(-88.65 -57.09)" style="fill: rgb(73, 73, 73);"/>
    <g opacity="0.1">
      <path d="M992.46,549.83c-7.44-9.82-12-21.45-17.25-32.61a136.38,136.38,0,0,0-7.07-13.36l-3.94-4.59c-.66.56-1.32,1.14-2,1.75a37.64,37.64,0,0,0-9.82-.29l-4.33,19.71-.26-19a37.42,37.42,0,1,0,20,72,5.28,5.28,0,0,0,2.25,2.16,5.34,5.34,0,0,0,7.32-6.88,37.35,37.35,0,0,0,4.8-3.92,37.49,37.49,0,0,0,22.44-3.32A52.71,52.71,0,0,1,992.46,549.83Z" transform="translate(-88.65 -57.09)" style="fill: rgb(73, 73, 73);"/>
    </g>
    <path d="M860.71,507.63a5.34,5.34,0,0,0-4.78-7.75,37.37,37.37,0,0,0-11.7-20.83,37.52,37.52,0,0,0,1.1-11.7L825.68,464l19.08-1.2a38,38,0,0,0-1.41-5.28,5.46,5.46,0,0,0,1.76-2,5.35,5.35,0,0,0-6.59-7.44A37.42,37.42,0,0,0,771.73,479a5.25,5.25,0,0,0-2.66,2.5,5.34,5.34,0,0,0,6.75,7.37,37.53,37.53,0,0,0,7.09,8.65,37.4,37.4,0,0,0,1.74,23.76L811,514.44,787.5,526.8a37.42,37.42,0,0,0,68.91-16.26A5.33,5.33,0,0,0,860.71,507.63Z" transform="translate(-88.65 -57.09)" style="fill: rgb(73, 73, 73);"/>
    <path d="M860.71,507.63a5.34,5.34,0,0,0-4.78-7.75,37.37,37.37,0,0,0-11.7-20.83c.16-.63.3-1.25.42-1.88a13.18,13.18,0,0,0-1.93,1.71c-3.55,3.89-5.37,9.12-8.88,13.05-4.14,4.64-10.34,7.06-16.53,7.71s-12.42-.3-18.53-1.49c-5.06-1-10.19-2.16-15.32-1.67-.5,0-1,.11-1.46.19.3.29.6.58.91.86a37.4,37.4,0,0,0,1.74,23.76L811,514.44,787.5,526.8a37.42,37.42,0,0,0,68.91-16.26A5.33,5.33,0,0,0,860.71,507.63Z" transform="translate(-88.65 -57.09)" opacity="0.1" style="fill: rgb(73, 73, 73);"/>
  </g>
  <g opacity="0.1" transform="matrix(0.734447, 0, 0, 0.734447, -0.367229, 12.158821)">
    <path d="M178.14,568.33c1.28-3.89,6.47-5.68,11.59-4a12.78,12.78,0,0,1,2.13.92c.33-.09.67-.17,1-.23a11.26,11.26,0,0,1-.32-3.42,12.46,12.46,0,0,1-5.47-10.82,11.92,11.92,0,0,1-4.14-4.69,12,12,0,0,1-1.33-6.12,12,12,0,0,1-4.14-4.7C175,530.39,176,524.9,179.75,523s8.77.55,11.24,5.43a12,12,0,0,1,1.32,6.13,12.37,12.37,0,0,1,5.47,10.81,12.4,12.4,0,0,1,5.47,10.82A12.37,12.37,0,0,1,208.72,567a12,12,0,0,1,4.15,4.7,12.66,12.66,0,0,1,1,2.9,10.66,10.66,0,0,1,2.23-2.39,12.58,12.58,0,0,1,.52-2.27c1.69-5.12,6.2-8.24,10.09-7s5.67,6.47,4,11.59a11.67,11.67,0,0,1-3.81,5.59,12.67,12.67,0,0,1-.52,2.26,11.1,11.1,0,0,1-5.11,6.42,12.84,12.84,0,0,1,.42,2,12.57,12.57,0,0,1,2.53,3.43,12.32,12.32,0,0,1,1.26,4.08,12.55,12.55,0,0,1,2.54,3.43,12.39,12.39,0,0,1,1.26,4.08,12.45,12.45,0,0,1,2.54,3.44c2.47,4.88,1.45,10.38-2.28,12.26s-8.77-.54-11.24-5.43a12.48,12.48,0,0,1-1.26-4.08,12.7,12.7,0,0,1-3.8-7.51,12.7,12.7,0,0,1-3.8-7.51,12.6,12.6,0,0,1-2.54-3.43,12.73,12.73,0,0,1-1.26-4.08,12.57,12.57,0,0,1-2.53-3.43,12.32,12.32,0,0,1-1.26-4.08,11.63,11.63,0,0,1-1.71-2,11.9,11.9,0,0,1-6.18-.38,13.29,13.29,0,0,1-2.14-.93,11.61,11.61,0,0,1-6.75-.24C180,576.73,176.87,572.22,178.14,568.33Z" transform="translate(-88.65 -57.09)" style="fill: rgb(73, 73, 73);"/>
    <g opacity="0.1">
      <path d="M187.17,553a10.72,10.72,0,0,0,1.74,1.39,11.31,11.31,0,0,0,.56,4.24,11.93,11.93,0,0,1-1.06-1.73A12.46,12.46,0,0,1,187.17,553Z" transform="translate(-88.65 -57.09)" style="fill: rgb(73, 73, 73);"/>
      <path d="M181.7,542.2a11.21,11.21,0,0,0,1.74,1.38,11.39,11.39,0,0,0,.56,4.25,12.7,12.7,0,0,1-2.3-5.63Z" transform="translate(-88.65 -57.09)" style="fill: rgb(73, 73, 73);"/>
      <path d="M194.13,538.17a11.11,11.11,0,0,0-.08-2.22,12.66,12.66,0,0,1,2.41,3.31,13,13,0,0,1,.76,1.88A11.42,11.42,0,0,0,194.13,538.17Z" transform="translate(-88.65 -57.09)" style="fill: rgb(73, 73, 73);"/>
      <path d="M228.83,603.63a11.65,11.65,0,0,0-1.48-1.7,12.4,12.4,0,0,0-.44-2,13.23,13.23,0,0,1,1.15,1.86A13,13,0,0,1,228.83,603.63Z" transform="translate(-88.65 -57.09)" style="fill: rgb(73, 73, 73);"/>
      <path d="M225,596.12a11.65,11.65,0,0,0-1.48-1.7,11.75,11.75,0,0,0-.42-2h0a12.67,12.67,0,0,1,1.88,3.68Z" transform="translate(-88.65 -57.09)" style="fill: rgb(73, 73, 73);"/>
      <path d="M192.65,563.84a10.11,10.11,0,0,0,1.73,1.37,10.9,10.9,0,0,0,.32,3.42,10,10,0,0,0-1,.23,13.26,13.26,0,0,0-2.14-.92c-5.12-1.68-10.31.11-11.58,4a5.82,5.82,0,0,0-.17,3,6.93,6.93,0,0,1-1.66-6.61c1.28-3.89,6.47-5.68,11.59-4a12.78,12.78,0,0,1,2.13.92c.33-.09.67-.17,1-.23A10.32,10.32,0,0,1,192.65,563.84Z" transform="translate(-88.65 -57.09)" style="fill: rgb(73, 73, 73);"/>
      <path d="M230.71,607.4a12.79,12.79,0,0,1,1.15,1.87,13,13,0,0,1,.77,1.88,11.74,11.74,0,0,0-1.48-1.71A12.4,12.4,0,0,0,230.71,607.4Z" transform="translate(-88.65 -57.09)" style="fill: rgb(73, 73, 73);"/>
      <path d="M199.6,549a11.08,11.08,0,0,0-.08-2.22,12.49,12.49,0,0,1,2.41,3.31,12.87,12.87,0,0,1,.76,1.87A11.38,11.38,0,0,0,199.6,549Z" transform="translate(-88.65 -57.09)" style="fill: rgb(73, 73, 73);"/>
      <path d="M207.51,593.1a11.94,11.94,0,0,0,.49,2.2,12.63,12.63,0,0,1-1.88-3.77A11.72,11.72,0,0,0,207.51,593.1Z" transform="translate(-88.65 -57.09)" style="fill: rgb(73, 73, 73);"/>
      <path d="M215.1,608.12a12.66,12.66,0,0,0,.5,2.2,11.93,11.93,0,0,1-1.06-1.73,12.88,12.88,0,0,1-.82-2A13,13,0,0,0,215.1,608.12Z" transform="translate(-88.65 -57.09)" style="fill: rgb(73, 73, 73);"/>
      <path d="M211.31,600.61a11.94,11.94,0,0,0,.49,2.2,12.88,12.88,0,0,1-1.06-1.73,12.6,12.6,0,0,1-.82-2A11.72,11.72,0,0,0,211.31,600.61Z" transform="translate(-88.65 -57.09)" style="fill: rgb(73, 73, 73);"/>
      <path d="M203.71,585.58a11.86,11.86,0,0,0,.49,2.21,12.44,12.44,0,0,1-1-1.73,12.23,12.23,0,0,1-.83-2A11.13,11.13,0,0,0,203.71,585.58Z" transform="translate(-88.65 -57.09)" style="fill: rgb(73, 73, 73);"/>
      <path d="M228.58,566.59c-3.89-1.28-8.4,1.84-10.08,7a12.58,12.58,0,0,0-.52,2.27,10.63,10.63,0,0,0-2.24,2.38,12.83,12.83,0,0,0-1.05-2.9c-.17-.34-.36-.67-.56-1a10.63,10.63,0,0,1,2-2.1,12.58,12.58,0,0,1,.52-2.27c1.69-5.12,6.2-8.24,10.09-7a6.93,6.93,0,0,1,4.34,5.26A5.93,5.93,0,0,0,228.58,566.59Z" transform="translate(-88.65 -57.09)" style="fill: rgb(73, 73, 73);"/>
      <path d="M210.54,570.62a11.11,11.11,0,0,0-.08-2.22,12.49,12.49,0,0,1,2.41,3.31,13,13,0,0,1,.76,1.88A11.28,11.28,0,0,0,210.54,570.62Z" transform="translate(-88.65 -57.09)" style="fill: rgb(73, 73, 73);"/>
      <path d="M205.07,559.8a11.13,11.13,0,0,0-.08-2.22,12.83,12.83,0,0,1,2.41,3.31,13,13,0,0,1,.76,1.88A11.42,11.42,0,0,0,205.07,559.8Z" transform="translate(-88.65 -57.09)" style="fill: rgb(73, 73, 73);"/>
      <path d="M218.9,615.63a11.9,11.9,0,0,0,.5,2.21,12.61,12.61,0,0,1-1.06-1.74,12.88,12.88,0,0,1-.82-2A13,13,0,0,0,218.9,615.63Z" transform="translate(-88.65 -57.09)" style="fill: rgb(73, 73, 73);"/>
    </g>
    <path d="M170.67,518.34a11.92,11.92,0,0,1-4.14-4.69c-2.47-4.89-1.45-10.38,2.28-12.27s8.77.54,11.24,5.43a11.93,11.93,0,0,1,1.32,6.12,12.4,12.4,0,0,1,5.47,10.82,12,12,0,0,1,4.15,4.69,13.23,13.23,0,0,1,.76,1.86,10.57,10.57,0,0,0-5.43-4,6.16,6.16,0,0,1-7.83,4,10.52,10.52,0,0,0,0,6.75,13.19,13.19,0,0,1-1-1.71,12,12,0,0,1-1.33-6.12,12.43,12.43,0,0,1-5.47-10.82Z" transform="translate(-88.65 -57.09)" style="fill: rgb(73, 73, 73);"/>
    <path d="M110.55,449a36.81,36.81,0,0,1-4.39-2.43l16.28-11.9-19.14,9.85a36.34,36.34,0,0,1-13.59-25.34l32.54.34-32.61-5.46a36.29,36.29,0,1,1,71.81,9.2,36.73,36.73,0,0,1,6.68,4l-17,23.64,20.41-20.68a36.32,36.32,0,0,1,10.16,33.05,36.29,36.29,0,1,1-50.9,25.74,36.28,36.28,0,0,1-20.25-40Z" transform="translate(-88.65 -57.09)" style="fill: rgb(73, 73, 73);"/>
    <path d="M178.5,439.78a36.12,36.12,0,0,1,3.2,23.53,36.29,36.29,0,1,1-50.9,25.74C123.67,485.74,176.67,436.15,178.5,439.78Z" transform="translate(-88.65 -57.09)" opacity="0.1" style="fill: rgb(73, 73, 73);"/>
    <circle cx="48.97" cy="324.78" r="5.39" style="fill: rgb(73, 73, 73);"/>
    <circle cx="17.51" cy="328.24" r="5.39" style="fill: rgb(73, 73, 73);"/>
    <circle cx="5.39" cy="376.63" r="5.39" style="fill: rgb(73, 73, 73);"/>
    <circle cx="21.76" cy="400.8" r="5.39" style="fill: rgb(73, 73, 73);"/>
    <circle cx="44.12" cy="450.99" r="5.39" style="fill: rgb(73, 73, 73);"/>
    <circle cx="44.12" cy="450.99" r="5.39" opacity="0.1" style="fill: rgb(73, 73, 73);"/>
    <circle cx="93.85" cy="394.14" r="5.39" style="fill: rgb(73, 73, 73);"/>
    <circle cx="93.85" cy="394.14" r="5.39" opacity="0.1" style="fill: rgb(73, 73, 73);"/>
    <path d="M188.25,539.81c3.58-1.81,4.66-6.93,2.57-11.66.11.2.22.39.32.59,2.47,4.89,1.45,10.38-2.29,12.27s-8.76-.54-11.23-5.43c-.1-.2-.2-.4-.29-.61C179.9,539.46,184.67,541.62,188.25,539.81Z" transform="translate(-88.65 -57.09)" opacity="0.1" style="fill: rgb(73, 73, 73);"/>
    <path d="M193.56,550.33c3.58-1.81,4.67-6.94,2.58-11.66.11.19.22.39.32.59,2.47,4.89,1.45,10.38-2.29,12.27s-8.76-.54-11.23-5.43c-.11-.2-.2-.41-.29-.61C185.22,550,190,552.14,193.56,550.33Z" transform="translate(-88.65 -57.09)" opacity="0.1" style="fill: rgb(73, 73, 73);"/>
    <path d="M198.88,560.84c3.58-1.81,4.67-6.93,2.57-11.66.12.2.22.39.33.6,2.47,4.88,1.44,10.38-2.29,12.26s-8.76-.54-11.23-5.43c-.11-.2-.2-.4-.29-.61C190.53,560.49,195.3,562.65,198.88,560.84Z" transform="translate(-88.65 -57.09)" opacity="0.1" style="fill: rgb(73, 73, 73);"/>
    <path d="M204.2,571.36c3.58-1.81,4.67-6.93,2.57-11.66.11.19.22.39.32.59,2.48,4.89,1.45,10.38-2.28,12.27s-8.77-.54-11.24-5.43c-.1-.2-.19-.41-.28-.61C195.85,571,200.62,573.17,204.2,571.36Z" transform="translate(-88.65 -57.09)" opacity="0.1" style="fill: rgb(73, 73, 73);"/>
    <path d="M209.52,581.87c3.58-1.81,4.66-6.93,2.57-11.65.11.19.22.39.32.59,2.47,4.89,1.45,10.38-2.28,12.27s-8.77-.55-11.24-5.43c-.1-.21-.19-.41-.29-.61C201.17,581.52,205.94,583.68,209.52,581.87Z" transform="translate(-88.65 -57.09)" opacity="0.1" style="fill: rgb(73, 73, 73);"/>
    <path d="M214.84,592.39c3.58-1.81,4.66-6.93,2.57-11.66.11.2.22.39.32.59,2.47,4.89,1.45,10.38-2.28,12.27s-8.77-.54-11.24-5.43c-.1-.2-.2-.4-.29-.61C206.49,592,211.26,594.2,214.84,592.39Z" transform="translate(-88.65 -57.09)" opacity="0.1" style="fill: rgb(73, 73, 73);"/>
    <path d="M220.16,602.91c3.57-1.81,4.66-6.94,2.57-11.66.11.19.22.39.32.59,2.47,4.89,1.45,10.38-2.29,12.27s-8.76-.55-11.23-5.43c-.1-.21-.2-.41-.29-.61C211.81,602.55,216.58,604.72,220.16,602.91Z" transform="translate(-88.65 -57.09)" opacity="0.1" style="fill: rgb(73, 73, 73);"/>
    <path d="M225.47,613.42c3.58-1.81,4.67-6.93,2.57-11.66.12.2.22.39.33.6,2.47,4.88,1.44,10.38-2.29,12.26s-8.76-.54-11.23-5.43c-.11-.2-.2-.4-.29-.61C217.13,613.07,221.89,615.23,225.47,613.42Z" transform="translate(-88.65 -57.09)" opacity="0.1" style="fill: rgb(73, 73, 73);"/>
    <path d="M229,620.33c3.58-1.81,4.66-6.93,2.57-11.66.11.2.22.39.32.6,2.47,4.88,1.45,10.38-2.28,12.26s-8.77-.54-11.24-5.43c-.1-.2-.2-.4-.29-.61C220.62,620,225.39,622.14,229,620.33Z" transform="translate(-88.65 -57.09)" opacity="0.1" style="fill: rgb(73, 73, 73);"/>
    <path d="M132.86,573.53a18.57,18.57,0,0,1-1-4.93,2.69,2.69,0,1,1,.41-5.35,18.82,18.82,0,0,1,9.89-12.75,2.69,2.69,0,1,1,4.81-2.43,2.44,2.44,0,0,1,.24.72,18.92,18.92,0,0,1,16.56,5,18.68,18.68,0,0,1,5-.14l2.18,9.92L171,554a18.85,18.85,0,1,1-10.08,36.29,2.76,2.76,0,0,1-1.13,1.09,2.7,2.7,0,0,1-3.7-3.47,18.84,18.84,0,0,1-2.41-2,18.87,18.87,0,0,1-19.8-10l10.15-1.71Z" transform="translate(-88.65 -57.09)" style="fill: rgb(73, 73, 73);"/>
    <g opacity="0.1">
      <path d="M148.54,578.35c3.75-5,6.05-10.8,8.69-16.42a66.7,66.7,0,0,1,3.56-6.74l2-2.31c.34.29.67.58,1,.88a18.68,18.68,0,0,1,5-.14l2.18,9.92L171,554a18.85,18.85,0,1,1-10.08,36.29,2.76,2.76,0,0,1-1.13,1.09,2.7,2.7,0,0,1-3.7-3.47,18.84,18.84,0,0,1-2.41-2,19,19,0,0,1-11.31-1.67A26.59,26.59,0,0,0,148.54,578.35Z" transform="translate(-88.65 -57.09)" style="fill: rgb(73, 73, 73);"/>
    </g>
    <path d="M214.91,557.09a2.68,2.68,0,0,1,1.19-3.61,2.64,2.64,0,0,1,1.22-.29,18.85,18.85,0,0,1,5.89-10.5,18.71,18.71,0,0,1-.55-5.89l9.89-1.66-9.61-.61a18.65,18.65,0,0,1,.72-2.66,2.64,2.64,0,0,1-.89-1,2.7,2.7,0,0,1,3.32-3.75,18.63,18.63,0,0,1,6.87-5.93,18.84,18.84,0,0,1,26.77,21.5,2.69,2.69,0,0,1,.16,4.87,2.7,2.7,0,0,1-2.22.1A18.74,18.74,0,0,1,254.1,552a18.9,18.9,0,0,1-.87,12L240,560.52l11.83,6.23A18.86,18.86,0,0,1,219,565.21a19.11,19.11,0,0,1-1.94-6.65A2.67,2.67,0,0,1,214.91,557.09Z" transform="translate(-88.65 -57.09)" style="fill: rgb(73, 73, 73);"/>
    <path d="M214.91,557.09a2.68,2.68,0,0,1,1.19-3.61,2.64,2.64,0,0,1,1.22-.29,18.85,18.85,0,0,1,5.89-10.5c-.08-.31-.15-.63-.21-.94a7.27,7.27,0,0,1,1,.86c1.79,2,2.71,4.59,4.47,6.57a12.91,12.91,0,0,0,8.33,3.89,31.54,31.54,0,0,0,9.33-.75,27.35,27.35,0,0,1,7.72-.85l.74.1-.46.43a18.9,18.9,0,0,1-.87,12L240,560.52l11.83,6.23A18.86,18.86,0,0,1,219,565.21a19.11,19.11,0,0,1-1.94-6.65A2.67,2.67,0,0,1,214.91,557.09Z" transform="translate(-88.65 -57.09)" opacity="0.1" style="fill: rgb(73, 73, 73);"/>
  </g>
  <path d="M 254.008 50.284 C 251.105 49.733 248.103 50.06 245.386 51.224 C 242.09 52.693 238.326 52.693 235.03 51.224 C 231.132 49.515 226.68 49.604 222.853 51.466 C 221.773 52.037 220.571 52.337 219.35 52.34 C 214.414 52.34 210.309 47.368 209.457 40.81 C 210.441 40.088 211.279 39.186 211.925 38.151 C 214.818 33.487 219.269 30.491 224.329 30.491 C 229.39 30.491 233.797 33.428 236.69 38.063 C 238.448 40.893 241.555 42.602 244.887 42.572 L 245.019 42.572 C 248.911 42.55 252.312 45.701 254.008 50.284 Z" fill="#6c63ff" opacity="0.1" style="stroke-width: 0.734;"/>
  <path d="M 269.006 29.719 L 261.03 34.78 L 265.87 25.966 C 264.497 24.873 262.799 24.268 261.044 24.248 L 260.92 24.248 C 260.366 24.255 259.813 24.213 259.267 24.123 L 256.557 25.842 L 257.717 23.734 C 255.808 23.069 254.154 21.824 252.988 20.172 L 248.133 23.205 L 251.188 17.645 C 248.361 14.245 244.541 12.159 240.348 12.159 C 235.317 12.159 230.8 15.155 227.936 19.819 C 226.191 22.655 223.059 24.337 219.732 24.226 L 219.489 24.226 C 213.937 24.226 209.428 30.52 209.428 38.298 C 209.428 46.076 213.937 52.362 219.489 52.362 C 220.711 52.359 221.913 52.059 222.993 51.488 C 226.82 49.624 231.274 49.538 235.17 51.253 C 238.467 52.717 242.229 52.717 245.526 51.253 C 249.391 49.575 253.795 49.661 257.593 51.488 C 258.664 52.044 259.852 52.336 261.059 52.34 C 266.619 52.34 271.121 46.046 271.121 38.276 C 271.141 35.292 270.413 32.351 269.006 29.719 Z" opacity="0.1" style="stroke-width: 0.734; fill: rgb(73, 73, 73);"/>
  <path d="M 88.023 152.034 C 83.876 151.25 79.589 151.715 75.707 153.371 C 70.995 155.46 65.617 155.446 60.915 153.334 C 55.348 150.893 48.989 151.019 43.523 153.679 C 41.979 154.493 40.26 154.921 38.514 154.928 C 31.464 154.928 25.595 147.826 24.376 138.454 C 25.785 137.428 26.982 136.138 27.902 134.657 C 32.037 127.996 38.441 123.714 45.631 123.714 C 52.821 123.714 59.145 127.944 63.258 134.532 C 65.772 138.594 70.233 141.039 75.009 140.973 L 75.193 140.973 C 80.76 140.966 85.622 145.468 88.023 152.034 Z" fill="#6c63ff" opacity="0.1" style="stroke-width: 0.734;"/>
  <path d="M 109.469 122.62 L 98.071 129.847 L 104.989 117.266 C 103.028 115.7 100.601 114.835 98.093 114.805 L 97.909 114.805 C 97.117 114.817 96.326 114.758 95.544 114.629 L 91.696 117.119 L 93.356 114.107 C 90.617 113.15 88.251 111.351 86.599 108.966 L 79.68 113.373 L 84.035 105.367 C 79.989 100.513 74.539 97.538 68.546 97.538 C 61.356 97.538 54.951 101.813 50.816 108.474 C 48.323 112.544 43.835 114.959 39.065 114.798 L 38.676 114.798 C 30.737 114.798 24.303 123.795 24.303 134.9 C 24.303 146.004 30.737 155.001 38.676 155.001 C 40.423 154.997 42.142 154.566 43.685 153.746 C 49.152 151.088 55.51 150.964 61.077 153.408 C 65.778 155.52 71.156 155.533 75.868 153.444 C 81.392 151.047 87.685 151.167 93.113 153.775 C 94.641 154.575 96.339 154.995 98.063 155.001 C 106.003 155.001 112.436 145.997 112.436 134.9 C 112.492 130.622 111.472 126.4 109.469 122.62 Z" opacity="0.1" style="stroke-width: 0.734; fill: rgb(73, 73, 73);"/>
  <path d="M 548.977 78.927 C 551.881 78.377 554.883 78.704 557.6 79.867 C 560.893 81.337 564.655 81.337 567.948 79.867 C 571.846 78.159 576.298 78.247 580.125 80.11 C 581.205 80.679 582.407 80.979 583.628 80.984 C 588.564 80.984 592.677 76.012 593.529 69.453 C 592.543 68.734 591.705 67.831 591.061 66.794 C 588.182 62.116 583.68 59.097 578.634 59.097 C 573.588 59.097 569.174 62.035 566.281 66.669 C 564.525 69.513 561.411 71.231 558.07 71.201 L 557.945 71.201 C 554.037 71.194 550.63 74.344 548.977 78.927 Z" fill="#6c63ff" opacity="0.1" style="stroke-width: 0.734;"/>
  <path d="M 533.936 58.363 L 541.912 63.409 L 537.064 54.595 C 538.437 53.502 540.135 52.898 541.89 52.877 L 542.022 52.877 C 542.575 52.883 543.128 52.841 543.674 52.752 L 546.377 54.47 L 545.217 52.362 C 547.14 51.709 548.81 50.468 549.991 48.815 L 554.831 51.885 L 551.768 46.325 C 554.603 42.925 558.378 40.839 562.616 40.839 C 567.647 40.839 572.164 43.836 575.028 48.499 C 576.771 51.336 579.904 53.019 583.232 52.906 L 583.496 52.906 C 589.056 52.906 593.558 59.2 593.558 66.978 C 593.558 74.756 589.056 81.043 583.496 81.043 C 582.275 81.037 581.073 80.737 579.993 80.169 C 576.166 78.304 571.712 78.219 567.816 79.934 C 564.521 81.397 560.761 81.397 557.467 79.934 C 553.599 78.255 549.193 78.341 545.393 80.169 C 544.322 80.725 543.133 81.017 541.926 81.021 C 536.374 81.021 531.864 74.726 531.864 66.956 C 531.825 63.963 532.537 61.009 533.936 58.363 Z" opacity="0.1" style="stroke-width: 0.734; fill: rgb(73, 73, 73);"/>
  <ellipse cx="451.78" cy="568.047" rx="84.461" ry="14.689" opacity="0.1" style="stroke-width: 0.734; fill: rgb(73, 73, 73);"/>
  <polygon points="407.574 498.275 276.703 496.593 277.092 493.236 283.416 437.866 398.349 437.866 406.803 493.236 407.449 497.437 407.574 498.275" fill="#d0d2d5" style="stroke-width: 0.734;"/>
  <polygon points="407.449 497.437 342.142 497.437 276.703 496.593 277.092 493.236 406.803 493.236 407.449 497.437" opacity="0.1" style="stroke-width: 0.734;"/>
  <rect x="254.89" y="494.081" width="173.66" height="4.194" fill="#d0d2d5" style="stroke-width: 0.734;"/>
  <path d="M 594.234 105.309 C 594.254 99.283 589.39 94.379 583.364 94.351 L 98.394 94.351 C 92.362 94.379 87.496 99.292 87.524 105.323 L 87.524 399.286 L 594.234 399.286 L 594.234 105.309 Z" fill="#3f3d56" style="stroke-width: 0.734;"/>
  <path d="M 87.524 396.348 L 87.524 430.779 C 87.524 436.782 92.391 441.649 98.394 441.649 L 583.364 441.649 C 589.367 441.649 594.234 436.782 594.234 430.779 L 594.234 396.348 L 87.524 396.348 Z" fill="#d0d2d5" style="stroke-width: 0.734;"/>
  <rect x="108.5" y="112.785" width="467.277" height="264.261" fill="#fff" style="stroke-width: 0.734;"/>
  <path d="M 343.398 428.583 C 346.875 428.587 350.16 426.992 352.307 424.257 C 352.629 423.846 352.923 423.414 353.188 422.964 L 346.967 421.914 L 353.688 421.958 C 354.99 419.126 355.067 415.882 353.901 412.991 L 344.889 417.662 L 353.203 411.551 C 348.819 404.015 337.921 404.052 333.587 411.616 C 331.297 415.614 331.656 420.6 334.497 424.228 C 336.636 426.971 339.919 428.577 343.398 428.583 Z" style="stroke-width: 0.734; fill: rgb(63, 61, 86);"/>
  <polygon points="354.723 441.641 406.935 494.081 398.922 441.641 354.723 441.641" opacity="0.1" style="stroke-width: 0.734;"/>
  <rect x="108.133" y="112.815" width="467.784" height="15.438" fill="#444053" opacity="0.1" style="stroke-width: 0.734;"/>
  <rect x="270.548" y="115.503" width="140.94" height="9.394" rx="0.58" opacity="0.3" style="stroke-width: 0.734; fill: rgb(99, 99, 99);"/>
  <path d="M 407.302 121.173 L 406.957 121.173 L 406.832 121.063 C 407.26 120.549 407.494 119.902 407.493 119.234 C 407.476 117.097 405.152 115.779 403.31 116.863 C 401.468 117.946 401.489 120.617 403.348 121.671 C 403.768 121.909 404.242 122.033 404.724 122.032 C 405.393 122.03 406.04 121.793 406.553 121.364 L 406.678 121.474 L 406.678 121.819 L 408.83 123.971 L 409.469 123.325 L 407.302 121.173 Z M 404.724 121.173 C 403.232 121.178 402.293 119.566 403.034 118.271 C 403.776 116.975 405.641 116.968 406.393 118.258 C 406.565 118.554 406.656 118.891 406.656 119.234 C 406.664 120.305 405.796 121.177 404.724 121.173 Z" fill="#3f3d56" style="stroke-width: 0.734;"/>
  <circle cx="116.542" cy="120.534" r="2.828" fill="#fa5959" opacity="0.8" style="stroke-width: 0.734;"/>
  <circle cx="124.32" cy="120.534" r="2.828" fill="#fed253" opacity="0.8" style="stroke-width: 0.734;"/>
  <circle cx="132.105" cy="120.534" r="2.828" fill="#8ccf4d" opacity="0.8" style="stroke-width: 0.734;"/>
  <path d="M 366.893 226.177 C 360.481 217.657 351.191 212.281 340.85 212.281 C 330.508 212.281 321.218 217.657 314.806 226.177 C 316.223 229.653 318.321 232.812 320.975 235.467 C 335.199 249.684 359.315 244.805 366.893 226.177 Z" style="stroke-width: 0.734; fill: rgb(63, 61, 86);"/>
  <path d="M 311.42 231.164 C 310.964 230.967 310.53 230.721 310.128 230.429 C 309.519 229.931 309.032 229.3 308.703 228.586 C 310.48 224.936 307.639 220.731 303.59 221.017 C 299.54 221.304 297.319 225.866 299.592 229.23 C 299.743 229.454 299.911 229.666 300.095 229.864 C 300.463 230.254 300.883 230.593 301.344 230.87 C 301.942 231.216 302.428 231.725 302.746 232.339 C 303.347 233.552 304.175 234.639 305.185 235.541 C 306.221 236.43 307.34 237.217 308.526 237.891 C 306.893 242.514 305.967 247.357 305.78 252.257 C 303.881 252.289 301.996 252.593 300.183 253.16 C 299.255 253.449 298.38 253.885 297.591 254.453 C 297.378 254.427 297.165 254.413 296.952 254.409 C 292.887 254.409 290.346 258.809 292.378 262.33 C 294.411 265.85 299.492 265.85 301.525 262.33 C 301.669 262.08 301.793 261.818 301.894 261.548 C 302.32 260.362 303.371 259.512 304.619 259.344 C 305.07 259.29 305.524 259.26 305.978 259.256 C 306.609 266.167 308.753 272.854 312.257 278.844 C 309.143 281.26 307.227 283.897 306.419 286.82 C 306.268 286.904 306.127 287.005 306 287.121 C 305.779 287.294 305.572 287.486 305.383 287.694 C 302.652 290.697 304.196 295.531 308.163 296.394 C 312.129 297.258 315.543 293.504 314.308 289.637 C 314.284 289.564 314.26 289.492 314.233 289.42 C 313.742 288.117 314.081 286.646 315.092 285.689 C 315.445 285.358 315.827 285.006 316.341 284.617 C 322.297 291.572 329.385 296.03 338.235 296.559 L 338.235 249.371 C 326.535 248.732 316.341 241.115 311.42 231.164 Z M 384.74 254.46 C 384.526 254.463 384.313 254.478 384.101 254.504 C 383.305 253.949 382.431 253.514 381.508 253.212 C 379.696 252.643 377.811 252.338 375.912 252.308 C 375.708 247.413 374.783 242.575 373.165 237.95 C 374.352 237.275 375.471 236.488 376.507 235.6 C 377.549 234.646 378.406 233.508 379.033 232.243 C 379.328 231.694 379.781 231.246 380.333 230.958 C 380.333 230.958 380.333 230.958 380.333 230.958 C 383.872 228.969 383.93 223.895 380.438 221.825 C 376.946 219.755 372.523 222.241 372.476 226.301 C 372.467 227.106 372.642 227.903 372.989 228.63 C 372.665 229.348 372.177 229.979 371.564 230.473 C 371.152 230.814 370.72 231.13 370.271 231.421 C 365.351 241.365 355.164 248.768 343.479 249.407 L 343.479 296.64 C 352.292 296.111 359.424 291.631 365.373 284.697 C 365.835 285.065 366.225 285.395 366.555 285.704 C 367.609 286.681 367.973 288.195 367.481 289.545 C 366.083 293.356 369.336 297.251 373.336 296.555 C 377.335 295.859 379.081 291.095 376.479 287.979 C 376.438 287.93 376.396 287.881 376.353 287.834 C 376.163 287.626 375.957 287.434 375.736 287.261 C 375.493 287.07 375.317 286.96 375.317 286.96 C 374.509 284.022 372.6 281.4 369.442 278.983 C 372.946 272.994 375.09 266.307 375.721 259.396 C 376.156 259.401 376.59 259.43 377.021 259.484 C 378.294 259.649 379.378 260.493 379.849 261.687 C 381.332 265.466 386.349 266.222 388.88 263.049 C 389.556 262.202 389.954 261.167 390.021 260.086 C 390.175 257.052 387.777 254.498 384.74 254.46 Z" style="stroke-width: 0.734; fill: rgb(63, 61, 86);"/>
  <path d="M 499.791 559.483 C 499.365 558.807 498.826 558.208 498.197 557.713 C 494.988 554.68 493.497 550.229 492.704 545.867 C 491.911 541.504 491.683 537.053 490.412 532.786 C 489.721 530.598 488.857 528.469 487.827 526.419 C 487.093 524.847 486.167 521.77 484.823 520.668 C 484.559 520.44 484.24 520.285 483.898 520.22 C 483.263 518.871 482.358 517.666 481.239 516.68 C 479.139 514.778 476.575 513.265 475.173 510.804 C 474.787 509.951 474.312 509.141 473.755 508.388 C 472.808 507.345 471.309 506.919 470.435 505.817 C 469.297 504.393 469.554 502.351 469.701 500.537 C 469.848 498.723 469.701 496.549 468.129 495.594 C 467.189 495.014 465.977 495.072 465 494.558 C 463.532 493.824 462.951 491.973 462.981 490.321 C 463.01 488.668 463.524 487.06 463.656 485.407 C 464.068 480.148 460.601 474.919 461.938 469.822 C 462.445 467.891 463.605 466.216 464.464 464.417 C 464.764 463.818 465.01 463.193 465.199 462.551 C 467.49 463.46 469.899 464.041 472.352 464.277 C 468.305 455.199 469.334 444.653 467.446 434.899 L 467.689 434.569 C 469.595 432.054 470.677 429.012 470.788 425.858 C 470.788 422.23 469.091 418.837 468.327 415.282 C 467.674 412.264 467.703 409.105 466.859 406.138 C 466.273 404.294 465.495 402.517 464.538 400.836 C 463.622 399.136 462.66 397.464 461.651 395.819 C 460.711 392.705 459.769 389.591 458.824 386.477 C 457.502 382.107 456.143 377.664 453.572 373.889 C 452.632 372.508 452.346 369.702 450.899 368.865 C 449.724 368.257 448.391 368.024 447.08 368.197 C 445.038 367.051 443.246 365.398 442.989 363.136 C 442.964 362.642 443.013 362.147 443.136 361.667 L 443.386 361.667 C 446.617 361.374 448.255 358.524 449.937 356.027 C 452.654 351.987 451.619 346.523 449.937 341.926 C 449.52 340.474 448.765 339.143 447.734 338.04 C 445.376 335.837 441.645 336.322 438.604 335.257 C 437.584 334.904 436.629 334.368 435.586 334.118 C 433.566 333.648 431.451 334.309 429.6 335.242 C 427.749 336.175 426.023 337.379 424.084 338.114 C 422.145 338.848 419.751 339.428 419.274 341.419 C 419.14 342.089 419.196 342.784 419.435 343.424 C 419.882 344.701 420.666 345.833 421.705 346.699 C 418.194 353.938 421.988 362.6 429.688 364.928 C 430.246 365.824 430.768 366.735 431.245 367.668 C 432.097 369.313 432.817 371.252 432.523 373.015 C 431.992 373.579 431.501 374.18 431.054 374.814 C 428.946 377.752 427.749 381.196 426.648 384.634 C 425.168 389.022 423.983 393.505 423.1 398.052 C 421.308 401.864 419.12 405.507 417.82 409.509 C 415.492 409.512 413.175 409.201 410.93 408.584 L 404.732 407.181 C 402.572 406.689 400.325 406.16 398.636 404.735 C 397.74 404.001 397.042 403.024 396.131 402.297 C 395.221 401.57 393.392 400.718 392.393 401.32 C 392.21 401.431 392.04 401.562 391.886 401.71 C 390.976 399.866 390.109 398.037 389.051 396.253 C 387.531 393.755 385.269 391.471 382.405 390.994 C 380.654 390.712 378.864 391.129 377.418 392.154 C 375.743 393.344 374.693 395.827 375.949 397.501 C 376.263 397.874 376.604 398.222 376.97 398.544 C 377.82 399.524 378.579 400.578 379.239 401.695 C 381.607 405.018 385.148 407.318 389.147 408.129 L 388.89 408.863 C 388.368 410.391 387.259 412.234 387.538 413.821 L 415.109 423.258 C 416.878 423.976 418.755 424.391 420.662 424.485 C 421.406 424.479 422.146 424.38 422.865 424.191 L 422.865 425.601 L 422.865 425.66 C 422.939 435.347 421.396 444.968 421.11 454.648 C 421.058 456.418 421.11 458.321 422.226 459.701 C 423.475 461.214 425.693 461.516 427.624 461.17 C 428.09 461.092 428.545 460.989 428.99 460.862 C 429.644 463.299 430.115 465.781 430.401 468.287 L 432.222 481.404 C 432.456 482.747 432.552 484.111 432.508 485.473 C 432.296 488.551 430.672 491.305 429.497 494.147 C 428.322 496.989 427.624 500.39 429.167 503.049 C 429.651 503.871 430.32 504.569 430.753 505.421 C 431.304 506.74 431.555 508.165 431.488 509.592 C 431.6 513.549 431.708 517.51 431.811 521.476 C 431.49 521.423 431.162 521.488 430.885 521.659 C 429.358 522.849 429.527 528.512 429.416 530.267 C 429.299 533.205 429.416 536.201 429.255 539.169 C 429.064 543.167 428.421 547.132 427.338 550.986 C 427.073 552.239 426.495 553.404 425.656 554.372 C 424.797 555.119 423.772 555.65 422.667 555.921 C 419.008 557.067 415.182 557.589 411.349 557.464 C 409.799 557.412 408.184 557.265 406.744 557.853 C 405.305 558.441 404.144 560.056 404.666 561.525 C 405.114 562.759 406.472 563.347 407.699 563.809 C 410.501 564.796 413.205 566.04 415.778 567.526 C 416.768 568.2 417.812 568.792 418.899 569.296 C 419.941 569.67 421.019 569.936 422.116 570.089 L 435.138 572.336 C 437.804 572.792 441.013 573.071 442.71 570.867 C 443.628 569.678 443.76 568.062 443.716 566.549 C 443.643 563.611 443.055 560.622 443.437 557.684 C 443.727 555.947 444.185 554.243 444.803 552.594 C 446.101 548.741 447.403 544.89 448.71 541.041 C 450.018 537.178 451.34 533.278 451.846 529.224 C 452.03 527.755 452.015 526.081 450.892 525.163 C 450.607 524.93 450.277 524.759 449.922 524.663 C 449.878 521.123 449.415 517.576 449.614 514.036 C 449.665 513.154 449.753 512.273 449.827 511.384 C 450.508 512.031 451.116 512.75 451.641 513.529 C 452.897 515.497 453.359 518.097 455.276 519.405 C 456.907 520.521 459.323 520.462 460.469 522.078 C 460.837 522.699 461.114 523.369 461.291 524.068 C 461.956 525.8 462.955 527.385 464.229 528.732 C 464.667 530.344 465.275 531.905 466.043 533.389 C 467.125 535.675 468.203 537.954 469.275 540.226 C 470.377 542.678 471.603 545.073 472.947 547.402 C 473.973 548.868 474.801 550.463 475.408 552.146 C 476.443 555.774 474.754 559.755 472.08 562.429 C 469.407 565.102 465.882 566.637 462.408 568.069 C 462.042 568.193 461.706 568.393 461.424 568.657 C 461.123 569.013 460.963 569.468 460.976 569.935 C 460.976 571.631 462.371 573.085 463.972 573.607 C 465.609 574.047 467.324 574.109 468.988 573.79 C 478.375 572.652 487.732 570.361 496.031 565.8 C 497.272 565.211 498.372 564.362 499.255 563.31 C 500.124 562.23 500.33 560.76 499.791 559.483 Z" fill="url(#af83dc26-9572-4816-b7a1-1af4f72ff554-677)" style="stroke-width: 0.734;"/>
  <path d="M 460.124 394.784 C 461.691 397.188 463.159 399.651 464.53 402.172 C 465.491 403.84 466.271 405.605 466.859 407.438 C 467.711 410.376 467.689 413.512 468.327 416.509 C 469.062 420.034 470.781 423.398 470.781 427.011 C 470.668 430.142 469.585 433.16 467.681 435.648 C 465.783 438.115 463.609 440.357 461.203 442.332 C 455.657 427.964 452.559 412.768 452.037 397.376 C 451.964 395.246 451.949 393.05 452.728 391.06 C 453.205 389.811 455.497 386.389 456.973 387.733 C 457.509 388.225 457.649 390.443 457.979 391.185 C 458.598 392.439 459.315 393.642 460.124 394.784 Z" fill="#2f2e41" style="stroke-width: 0.734;"/>
  <path d="M 460.124 394.784 C 461.691 397.188 463.159 399.651 464.53 402.172 C 465.491 403.84 466.271 405.605 466.859 407.438 C 467.711 410.376 467.689 413.512 468.327 416.509 C 469.062 420.034 470.781 423.398 470.781 427.011 C 470.668 430.142 469.585 433.16 467.681 435.648 C 465.783 438.115 463.609 440.357 461.203 442.332 C 455.657 427.964 452.559 412.768 452.037 397.376 C 451.964 395.246 451.949 393.05 452.728 391.06 C 453.205 389.811 455.497 386.389 456.973 387.733 C 457.509 388.225 457.649 390.443 457.979 391.185 C 458.598 392.439 459.315 393.642 460.124 394.784 Z" opacity="0.1" style="stroke-width: 0.734;"/>
  <path d="M 266.494 294.583 C 260.685 300.385 259.987 302.941 256.498 304.094 C 253.01 305.247 240.458 311.747 244.402 318.952 L 255.007 325.959 L 255.316 326.164 L 256.939 331.041 L 240.899 359.596 C 240.899 359.596 214.459 347.507 211.866 365.391 C 209.273 383.275 210.918 388.159 210.221 397.707 C 209.523 407.255 210.448 410.016 208.12 410.016 C 205.792 410.016 204.874 403.744 204.874 403.744 C 204.874 403.744 204.727 403.457 204.47 402.921 C 201.011 395.731 177.531 342.946 215.142 306.665 C 215.142 306.665 232.563 305.519 236.756 285.542 C 239.65 271.734 249.771 272.924 256.498 275.737 C 258.685 276.595 260.722 277.792 262.535 279.285 C 264.167 280.829 265.618 282.554 266.861 284.426 C 268.778 287.452 269.821 291.249 266.494 294.583 Z" fill="#d0d2d5" style="stroke-width: 0.734;"/>
  <path d="M 255.316 326.164 L 256.939 331.041 L 240.899 359.596 C 240.899 359.596 214.459 347.507 211.866 365.391 C 209.273 383.275 210.918 388.159 210.221 397.707 C 209.523 407.255 210.448 410.016 208.12 410.016 C 205.792 410.016 204.874 403.744 204.874 403.744 C 204.874 403.744 204.727 403.457 204.47 402.921 C 203.302 393.99 197.383 341.749 218.843 344.525 C 218.843 344.525 236.257 352.663 239.04 349.417 C 241.244 346.846 251.027 332.062 255.007 325.995 L 255.316 326.164 Z" opacity="0.1" style="stroke-width: 0.734;"/>
  <path d="M 266.861 284.382 L 256.256 296.434 C 256.256 296.434 243.939 312.915 241.383 312.217 C 240.618 312.05 239.838 311.959 239.055 311.945 C 235.583 311.679 233.7 307.754 235.667 304.88 C 235.802 304.682 235.953 304.496 236.117 304.322 C 240.318 299.915 248.059 291.55 248.566 289.692 C 249.073 287.834 254.001 279.688 256.469 275.7 C 258.655 276.558 260.693 277.755 262.506 279.248 C 264.147 280.789 265.609 282.511 266.861 284.382 Z" opacity="0.1" style="stroke-width: 0.734;"/>
  <path d="M 566.927 457.777 C 565.128 461.376 555.91 474.875 551.878 480.773 L 549.991 483.549 C 549.991 483.549 549.256 488.426 537.219 482.381 C 525.181 476.337 242.353 356.996 242.353 356.996 L 240.436 351.238 L 254.39 330.343 L 564.378 450.11 C 564.378 450.11 569.255 453.128 566.927 457.777 Z" fill="#454b69" style="stroke-width: 0.734;"/>
  <path d="M 551.878 480.773 L 549.991 483.549 C 549.991 483.549 549.256 488.426 537.219 482.381 C 525.181 476.337 242.353 356.996 242.353 356.996 L 240.436 351.238 L 551.878 480.773 Z" opacity="0.1" style="stroke-width: 0.734;"/>
  <path d="M 381.281 402.819 C 378.409 402.348 375.222 402.576 372.989 404.442 C 371.639 405.584 370.786 407.206 370.609 408.966 C 370.418 411 371.601 413.417 373.643 413.571 C 374.134 413.576 374.625 413.544 375.111 413.475 C 376.401 413.47 377.689 413.578 378.96 413.799 C 384.036 414.276 389.027 412.261 392.349 408.393 C 394.104 406.19 391.791 405.235 389.72 404.794 C 386.885 404.192 384.116 403.274 381.281 402.819 Z" fill="#fbbebe" style="stroke-width: 0.734;"/>
  <path d="M 430.401 469.146 L 432.222 482.087 C 432.454 483.423 432.548 484.779 432.501 486.134 C 432.288 489.182 430.665 491.914 429.497 494.735 C 428.329 497.555 427.617 500.933 429.167 503.548 C 429.644 504.363 430.312 505.061 430.746 505.906 C 431.296 507.212 431.547 508.625 431.48 510.04 L 431.98 528.402 C 437.649 528.788 443.339 528.757 449.004 528.306 C 449.226 528.317 449.444 528.249 449.621 528.115 C 449.771 527.925 449.846 527.688 449.834 527.447 C 450.084 523.15 449.335 518.846 449.577 514.55 C 449.665 512.978 449.886 511.414 449.915 509.835 C 450.003 503.438 446.845 497.173 447.8 490.849 C 448.099 489.254 448.492 487.677 448.975 486.127 C 451.993 475.11 451.354 463.535 450.686 452.159 C 450.697 451.976 450.646 451.794 450.539 451.645 C 450.431 451.536 450.293 451.462 450.143 451.432 C 443.622 449.475 436.557 450.818 431.209 455.03 C 430.408 455.677 428.388 456.301 427.859 457.072 C 427.125 458.144 428.087 459.217 428.513 460.355 C 429.457 463.209 430.09 466.157 430.401 469.146 Z" fill="#3f3d56" style="stroke-width: 0.734;"/>
  <path d="M 430.401 469.146 L 432.222 482.087 C 432.454 483.423 432.548 484.779 432.501 486.134 C 432.288 489.182 430.665 491.914 429.497 494.735 C 428.329 497.555 427.617 500.933 429.167 503.548 C 429.644 504.363 430.312 505.061 430.746 505.906 C 431.296 507.212 431.547 508.625 431.48 510.04 L 431.98 528.402 C 437.649 528.788 443.339 528.757 449.004 528.306 C 449.226 528.317 449.444 528.249 449.621 528.115 C 449.771 527.925 449.846 527.688 449.834 527.447 C 450.084 523.15 449.335 518.846 449.577 514.55 C 449.665 512.978 449.886 511.414 449.915 509.835 C 450.003 503.438 446.845 497.173 447.8 490.849 C 448.099 489.254 448.492 487.677 448.975 486.127 C 451.993 475.11 451.354 463.535 450.686 452.159 C 450.697 451.976 450.646 451.794 450.539 451.645 C 450.431 451.536 450.293 451.462 450.143 451.432 C 443.622 449.475 436.557 450.818 431.209 455.03 C 430.408 455.677 428.388 456.301 427.859 457.072 C 427.125 458.144 428.087 459.217 428.513 460.355 C 429.457 463.209 430.09 466.157 430.401 469.146 Z" opacity="0.1" style="stroke-width: 0.734;"/>
  <path d="M 464.457 465.247 C 463.598 467.031 462.445 468.691 461.93 470.608 C 460.594 475.668 464.053 480.89 463.642 486.075 C 463.51 487.713 463.003 489.307 462.966 490.945 C 462.929 492.583 463.532 494.404 464.986 495.161 C 465.963 495.66 467.189 495.609 468.107 496.181 C 469.657 497.129 469.833 499.281 469.679 501.088 C 469.525 502.894 469.268 504.914 470.413 506.324 C 471.287 507.418 472.786 507.844 473.726 508.88 C 474.285 509.623 474.76 510.426 475.143 511.274 C 476.546 513.727 479.109 515.226 481.21 517.15 C 483.31 519.074 485.088 521.894 484.147 524.56 C 483.457 526.514 481.518 527.719 479.653 528.637 C 476.249 530.319 472.657 531.589 468.952 532.419 C 468.554 532.539 468.133 532.562 467.725 532.485 C 467.312 532.334 466.943 532.082 466.653 531.751 C 464.486 529.628 462.246 527.403 461.247 524.546 C 461.07 523.853 460.793 523.19 460.425 522.577 C 459.279 520.969 456.863 521.028 455.232 519.919 C 453.323 518.619 452.86 516.041 451.611 514.095 C 450.363 512.148 448.534 510.988 447.205 509.277 C 444.957 506.427 444.407 502.623 442.798 499.369 C 442.115 497.988 441.241 496.696 440.698 495.256 C 440.149 493.531 439.811 491.745 439.691 489.939 C 438.656 481.36 436.019 472.723 437.679 464.233 C 438.046 462.367 438.612 460.561 438.847 458.636 C 439.251 455.309 438.612 451.902 439.104 448.582 C 439.128 447.738 439.537 446.951 440.213 446.445 C 440.61 446.267 441.041 446.179 441.476 446.188 C 445.83 445.955 450.195 446.053 454.535 446.481 C 456.738 446.694 459.206 447.142 460.528 448.942 C 461.651 450.484 461.593 452.548 461.952 454.421 C 462.4 456.727 463.568 457.983 464.795 459.79 C 466.021 461.596 465.36 463.381 464.457 465.247 Z" fill="#3f3d56" style="stroke-width: 0.734;"/>
  <path d="M 447.513 524.928 C 448.674 524.928 449.959 524.854 450.855 525.589 C 451.971 526.507 451.986 528.189 451.81 529.621 C 451.296 533.646 449.981 537.516 448.666 541.372 L 444.759 552.837 C 444.141 554.473 443.683 556.165 443.393 557.89 C 443.011 560.827 443.599 563.765 443.672 566.703 C 443.672 568.172 443.577 569.802 442.659 570.985 C 440.999 573.122 437.76 572.872 435.094 572.454 L 422.087 570.25 C 420.989 570.104 419.911 569.841 418.87 569.465 C 417.784 568.963 416.741 568.376 415.748 567.709 C 413.174 566.239 410.47 565.009 407.669 564.037 C 406.45 563.582 405.084 563.001 404.644 561.775 C 404.122 560.306 405.283 558.69 406.722 558.103 C 408.162 557.515 409.77 557.662 411.327 557.706 C 415.156 557.828 418.978 557.312 422.638 556.178 C 423.74 555.908 424.762 555.379 425.619 554.636 C 426.491 553.657 427.084 552.463 427.338 551.177 C 428.446 547.349 429.107 543.406 429.306 539.426 C 429.461 536.488 429.358 533.55 429.475 530.612 C 429.549 528.872 429.38 523.268 430.907 522.071 C 432.075 521.175 436.878 523.65 438.458 524.01 C 441.426 524.69 444.468 524.998 447.513 524.928 Z" fill="#2f2e41" style="stroke-width: 0.734;"/>
  <path d="M 490.361 533.095 C 491.631 537.303 491.83 541.754 492.652 546.08 C 493.475 550.406 494.929 554.82 498.139 557.831 C 498.763 558.327 499.302 558.922 499.732 559.594 C 500.285 560.876 500.072 562.359 499.182 563.435 C 498.295 564.479 497.196 565.323 495.957 565.91 C 487.665 570.434 478.331 572.718 468.922 573.849 C 467.26 574.161 465.549 574.098 463.913 573.666 C 462.312 573.122 460.895 571.683 460.924 569.993 C 460.909 569.53 461.066 569.077 461.365 568.723 C 461.651 568.461 461.989 568.264 462.356 568.143 C 465.823 566.718 469.341 565.168 472.022 562.539 C 474.702 559.909 476.384 555.929 475.349 552.359 C 474.736 550.687 473.903 549.104 472.874 547.651 C 471.531 545.342 470.305 542.967 469.201 540.535 L 465.97 533.756 C 465.022 531.773 464.068 529.731 463.906 527.542 C 467.966 527.724 472.02 527.074 475.819 525.633 C 477.592 524.91 479.244 523.919 480.718 522.695 C 481.966 521.652 483.105 519.706 484.786 521.064 C 486.138 522.151 486.99 525.214 487.783 526.764 C 488.813 528.8 489.676 530.918 490.361 533.095 Z" fill="#2f2e41" style="stroke-width: 0.734;"/>
  <path d="M 443.004 364.767 C 443.327 367.587 446.059 369.445 448.666 370.562 L 432.163 375.828 C 433.228 373.786 432.369 371.289 431.311 369.218 C 430.45 367.578 429.468 366.004 428.374 364.51 C 428.212 364.282 428.028 363.996 428.146 363.731 C 428.251 363.559 428.415 363.43 428.609 363.371 C 432.002 361.858 435.498 360.294 439.207 359.743 C 440.279 359.589 442.306 359.163 443.107 360.25 C 443.907 361.337 442.85 363.467 443.004 364.767 Z" fill="#fbbebe" style="stroke-width: 0.734;"/>
  <path d="M 443.004 364.767 C 443.327 367.587 446.059 369.445 448.666 370.562 L 432.163 375.828 C 433.228 373.786 432.369 371.289 431.311 369.218 C 430.45 367.578 429.468 366.004 428.374 364.51 C 428.212 364.282 428.028 363.996 428.146 363.731 C 428.251 363.559 428.415 363.43 428.609 363.371 C 432.002 361.858 435.498 360.294 439.207 359.743 C 440.279 359.589 442.306 359.163 443.107 360.25 C 443.907 361.337 442.85 363.467 443.004 364.767 Z" opacity="0.1" style="stroke-width: 0.734;"/>
  <circle cx="433.412" cy="354.11" r="12.941" fill="#fbbebe" style="stroke-width: 0.734;"/>
  <path d="M 422.197 460.605 C 423.453 462.11 425.663 462.404 427.595 462.074 C 432.112 461.339 435.806 458.012 440.228 456.815 C 445.648 455.346 451.384 457.234 456.503 459.547 C 461.622 461.861 466.712 464.688 472.308 465.085 C 467.248 453.804 470.142 440.231 465.302 428.855 C 464.119 426.071 462.467 423.39 462.202 420.379 C 461.872 416.641 463.737 413.035 464.024 409.318 C 464.288 406.006 463.289 402.708 462.334 399.55 C 461.154 395.672 459.974 391.794 458.794 387.917 C 457.472 383.576 456.114 379.162 453.55 375.431 C 452.603 374.058 452.317 371.274 450.877 370.444 C 447.734 368.63 442.967 370.914 439.559 371.039 C 436.151 371.164 433.045 373.588 431.054 376.327 C 428.946 379.221 427.749 382.665 426.648 386.073 C 424.893 391.147 423.584 396.364 422.733 401.665 C 422.623 402.459 422.527 403.252 422.454 404.052 C 421.719 411.595 422.792 419.182 422.851 426.761 L 422.851 426.813 C 422.924 436.427 421.382 445.982 421.095 455.589 C 421.066 457.344 421.11 459.261 422.197 460.605 Z" fill="#2f2e41" style="stroke-width: 0.734;"/>
  <path d="M 422.873 426.769 C 425.406 426.13 427.698 424.492 429.666 422.7 C 431.371 421.174 432.885 419.448 434.176 417.559 C 435.801 415.019 437.105 412.288 438.061 409.429 C 440.78 401.78 442.508 393.815 443.202 385.728 C 443.393 383.525 443.452 381.16 442.137 379.412 C 440.617 377.462 437.954 376.817 435.711 377.855 C 433.977 378.699 432.854 380.411 431.811 382.048 C 429.747 385.295 427.668 388.585 426.339 392.198 C 425.752 393.8 425.318 395.445 424.745 397.053 C 424.163 398.64 423.491 400.192 422.733 401.702 C 422.623 402.495 422.527 403.289 422.454 404.089 C 421.771 411.632 422.814 419.189 422.873 426.769 Z" opacity="0.1" style="stroke-width: 0.734;"/>
  <path d="M 442.1 377.994 C 443.415 379.742 443.356 382.129 443.173 384.303 C 442.48 392.391 440.752 400.356 438.032 408.004 C 437.084 410.888 435.779 413.641 434.146 416.2 C 432.853 418.087 431.34 419.813 429.637 421.341 C 427.14 423.618 424.099 425.652 420.713 425.682 C 418.808 425.592 416.931 425.182 415.161 424.47 L 387.582 415.084 C 387.303 413.512 388.412 411.676 388.934 410.163 L 390.403 405.808 C 390.821 404.603 391.306 403.303 392.4 402.65 C 393.495 401.996 395.228 402.892 396.139 403.619 C 397.049 404.346 397.74 405.301 398.636 406.043 C 400.332 407.453 402.572 407.982 404.732 408.466 L 410.923 409.855 C 413.168 410.469 415.485 410.778 417.812 410.773 C 419.538 405.499 422.821 400.858 424.679 395.628 C 425.252 394.027 425.685 392.375 426.28 390.774 C 427.602 387.16 429.688 383.877 431.752 380.624 C 432.788 378.993 433.911 377.282 435.652 376.43 C 437.903 375.379 440.581 376.029 442.1 377.994 Z" fill="#2f2e41" style="stroke-width: 0.734;"/>
  <path d="M 437.539 357.033 C 437.441 356.182 437.177 355.358 436.761 354.609 C 436.317 353.84 435.425 353.447 434.558 353.64 C 433.265 354.044 432.832 356.042 431.48 356.108 C 430.57 356.152 429.916 355.226 429.629 354.36 C 429.343 353.493 429.189 352.502 428.506 351.892 C 428.03 351.536 427.484 351.286 426.905 351.158 C 423.769 350.166 420.53 348.337 419.487 345.216 C 419.241 344.582 419.183 343.891 419.318 343.225 C 419.795 341.25 422.256 340.655 424.128 339.943 C 426.001 339.23 427.801 338.011 429.637 337.086 C 431.473 336.16 433.603 335.506 435.623 335.977 C 436.647 336.299 437.655 336.674 438.641 337.1 C 441.682 338.158 445.405 337.666 447.763 339.862 C 448.793 340.951 449.548 342.27 449.966 343.71 C 451.611 348.278 452.654 353.699 449.93 357.709 C 448.248 360.184 446.617 363.011 443.386 363.313 C 439.625 363.628 438.134 360.221 437.539 357.033 Z" fill="#2f2e41" style="stroke-width: 0.734;"/>
  <g opacity="0.1" transform="matrix(0.734447, 0, 0, 0.734447, -0.367229, 12.158821)">
    <path d="M677.07,520.9c-.39-1.18-.6-2.53-1.52-3.36a5.7,5.7,0,0,0-2.18-1c-4.28-1.35-8.68-3.84-10.11-8.09a4.93,4.93,0,0,1-.22-2.71,3.39,3.39,0,0,1,.53-1.19c-1.63.71-3.05,1.65-3.45,3.31a4.84,4.84,0,0,0,.23,2.71c1.42,4.25,5.83,6.74,10.1,8.09a5.7,5.7,0,0,1,2.18,1c.93.83,1.13,2.17,1.53,3.36s1.28,2.44,2.52,2.38,1.84-1.19,2.63-2.14C678.22,523.12,677.43,522,677.07,520.9Z" transform="translate(-88.65 -57.09)"/>
    <path d="M695.79,533.06c-5.14.47-7.17-4.21-8-8.52a8.7,8.7,0,0,0-1-3.3,2.78,2.78,0,0,0-3-1.32,5.32,5.32,0,0,0-2.21,2,3,3,0,0,1,2.26,1.4,8.89,8.89,0,0,1,1.06,3.3c.81,4.31,2.84,9,8,8.52a8.25,8.25,0,0,0,5.28-2.74A7.46,7.46,0,0,1,695.79,533.06Z" transform="translate(-88.65 -57.09)"/>
  </g>
  <ellipse cx="596.819" cy="493.794" rx="23.715" ry="4.561" style="stroke-width: 0.734; fill: rgb(63, 61, 86);"/>
  <ellipse cx="596.422" cy="491.856" rx="2.762" ry="3.613" fill="#3f3d56" style="stroke-width: 0.734;"/>
  <ellipse cx="596.422" cy="487.434" rx="2.762" ry="3.613" fill="#3f3d56" style="stroke-width: 0.734;"/>
  <ellipse cx="596.422" cy="483.02" rx="2.762" ry="3.613" fill="#3f3d56" style="stroke-width: 0.734;"/>
  <ellipse cx="596.422" cy="478.599" rx="2.762" ry="3.613" fill="#3f3d56" style="stroke-width: 0.734;"/>
  <ellipse cx="596.422" cy="474.177" rx="2.762" ry="3.613" fill="#3f3d56" style="stroke-width: 0.734;"/>
  <ellipse cx="596.422" cy="469.763" rx="2.762" ry="3.613" fill="#3f3d56" style="stroke-width: 0.734;"/>
  <ellipse cx="596.422" cy="465.342" rx="2.762" ry="3.613" fill="#3f3d56" style="stroke-width: 0.734;"/>
  <path d="M 606.756 435.134 C 607.133 434.654 607.476 434.148 607.784 433.621 L 600.528 432.431 L 608.379 432.483 C 609.894 429.171 609.984 425.383 608.629 422.002 L 598.097 427.467 L 607.806 420.328 C 602.694 411.528 589.973 411.562 584.909 420.389 C 582.227 425.063 582.65 430.897 585.979 435.134 C 585.389 435.88 584.881 436.688 584.466 437.543 L 593.889 442.442 L 583.841 439.071 C 582.416 443.299 583.22 447.961 585.979 451.468 C 579.692 459.471 584.426 471.278 594.5 472.721 C 604.574 474.164 612.432 464.16 608.645 454.715 C 608.178 453.549 607.547 452.456 606.771 451.468 C 610.548 446.671 610.548 439.91 606.771 435.112 L 606.756 435.134 Z" style="stroke-width: 0.734; fill: rgb(63, 61, 86);"/>
  <path d="M 583.129 443.287 C 583.128 446.257 584.132 449.141 585.979 451.468 C 579.692 459.471 584.426 471.278 594.5 472.721 C 604.574 474.164 612.432 464.16 608.645 454.715 C 608.178 453.549 607.547 452.456 606.771 451.468 C 608.526 449.214 583.129 441.803 583.129 443.287 Z" opacity="0.1" style="stroke-width: 0.734; fill: rgb(63, 61, 86);"/>
  <ellipse cx="108.639" cy="582.729" rx="34.144" ry="6.566" style="stroke-width: 0.734; fill: rgb(63, 61, 86);"/>
  <ellipse cx="108.067" cy="579.938" rx="3.973" ry="5.207" fill="#3f3d56" style="stroke-width: 0.734;"/>
  <ellipse cx="108.067" cy="573.577" rx="3.973" ry="5.207" fill="#3f3d56" style="stroke-width: 0.734;"/>
  <ellipse cx="108.067" cy="567.217" rx="3.973" ry="5.207" fill="#3f3d56" style="stroke-width: 0.734;"/>
  <ellipse cx="108.067" cy="560.857" rx="3.973" ry="5.207" fill="#3f3d56" style="stroke-width: 0.734;"/>
  <ellipse cx="108.067" cy="554.497" rx="3.973" ry="5.207" fill="#3f3d56" style="stroke-width: 0.734;"/>
  <ellipse cx="108.067" cy="548.129" rx="3.973" ry="5.207" fill="#3f3d56" style="stroke-width: 0.734;"/>
  <ellipse cx="108.067" cy="541.769" rx="3.973" ry="5.207" fill="#3f3d56" style="stroke-width: 0.734;"/>
  <path d="M 122.946 498.245 C 123.484 497.544 123.975 496.808 124.415 496.042 L 113.971 494.323 L 125.267 494.411 C 127.455 489.643 127.585 484.185 125.627 479.319 L 110.483 487.206 L 124.437 476.924 C 117.117 464.223 98.792 464.209 91.452 476.899 C 87.548 483.65 88.153 492.099 92.981 498.223 C 92.123 499.296 91.384 500.458 90.778 501.69 L 104.343 508.74 L 89.882 503.886 C 87.822 510.001 89 516.744 93.01 521.799 C 83.946 533.321 90.755 550.335 105.265 552.423 C 119.776 554.512 131.106 540.109 125.659 526.498 C 124.984 524.81 124.07 523.228 122.946 521.799 C 128.383 514.891 128.383 505.16 122.946 498.253 L 122.946 498.245 Z" style="stroke-width: 0.734; fill: rgb(63, 61, 86);"/>
  <path d="M 88.934 510.048 C 88.935 514.311 90.371 518.451 93.01 521.799 C 83.946 533.321 90.755 550.335 105.265 552.423 C 119.776 554.512 131.106 540.109 125.659 526.498 C 124.984 524.81 124.07 523.228 122.946 521.799 C 125.48 518.553 88.934 507.881 88.934 510.048 Z" opacity="0.1" style="stroke-width: 0.734; fill: rgb(63, 61, 86);"/>
</svg>