<?xml version="1.0" encoding="utf-8"?>
<svg xmlns="http://www.w3.org/2000/svg" width="751.11894" height="669.03003" viewBox="0 0 751.11894 669.03003" role="img" artist="Katerina Limpitsouni" source="https://undraw.co/">
  <title>bug fixing</title>
  <path d="M 612.976 337.479 L 129.211 337.479 C 122.335 337.471 116.763 331.899 116.755 325.023 L 116.755 26.724 C 116.761 21.687 120.843 17.605 125.88 17.599 L 616.149 17.599 C 621.273 17.605 625.426 21.758 625.432 26.882 L 625.432 325.023 C 625.424 331.899 619.852 337.471 612.976 337.479 Z" fill="#f2f2f2" style="stroke-width: 0.755;"/>
  <path d="M 595.329 319.84 L 144.472 319.84 C 137.863 319.84 132.487 314.805 132.487 308.616 L 132.487 48.853 C 132.487 44.263 136.471 40.529 141.368 40.529 L 598.285 40.529 C 603.264 40.529 607.315 44.325 607.315 48.99 L 607.315 308.616 C 607.315 314.805 601.938 319.84 595.329 319.84 Z" fill="#fff" style="stroke-width: 0.755;"/>
  <path d="M 625.258 26.012 L 116.581 26.012 L 116.581 19.671 C 116.591 12.772 122.183 7.183 129.082 7.177 L 612.757 7.177 C 619.656 7.183 625.248 12.772 625.258 19.671 L 625.258 26.012 Z" fill="#ccc" style="stroke-width: 0.755;"/>
  <circle cx="139.299" cy="16.613" r="3.234" fill="#fff" style="stroke-width: 0.755;"/>
  <circle cx="151.573" cy="16.613" r="3.234" fill="#fff" style="stroke-width: 0.755;"/>
  <circle cx="163.847" cy="16.613" r="3.234" fill="#fff" style="stroke-width: 0.755;"/>
  <path d="M 545.703 276.273 L 196.309 276.273 C 189.017 276.265 183.107 270.355 183.099 263.063 L 183.099 94.605 C 183.105 89.151 187.524 84.731 192.979 84.725 L 548.876 84.725 C 554.417 84.731 558.907 89.222 558.914 94.763 L 558.914 263.063 C 558.905 270.355 552.996 276.265 545.703 276.273 Z M 192.979 86.235 C 188.358 86.24 184.613 89.985 184.608 94.605 L 184.608 263.063 C 184.616 269.522 189.85 274.756 196.309 274.764 L 545.703 274.764 C 552.162 274.756 557.397 269.522 557.404 263.063 L 557.404 94.763 C 557.399 90.055 553.584 86.24 548.876 86.235 L 192.979 86.235 Z" fill="#ccc" style="stroke-width: 0.755;"/>
  <path d="M 208.388 263.063 L 533.625 263.063 C 540.295 263.063 545.703 257.655 545.703 250.984 L 545.703 110.161 C 545.703 103.49 540.295 98.082 533.625 98.082 L 208.388 98.082 C 201.717 98.082 196.309 103.49 196.309 110.161 L 196.309 250.984 C 196.309 257.655 201.717 263.063 208.388 263.063 Z" fill="#f2f2f2" style="stroke-width: 0.755;"/>
  <circle cx="245.316" cy="132.259" r="6.794" fill="#ccc" style="stroke-width: 0.755;"/>
  <circle cx="245.316" cy="157.926" r="6.794" fill="#ccc" style="stroke-width: 0.755;"/>
  <circle cx="245.316" cy="183.592" r="6.794" fill="#ccc" style="stroke-width: 0.755;"/>
  <circle cx="245.316" cy="209.259" r="6.794" fill="#ccc" style="stroke-width: 0.755;"/>
  <path d="M 502.735 133.014 L 279.287 133.014 C 278.705 133.014 278.342 132.385 278.633 131.882 C 278.768 131.648 279.017 131.505 279.287 131.505 L 502.735 131.505 C 503.316 131.505 503.679 132.134 503.389 132.637 C 503.254 132.87 503.005 133.014 502.735 133.014 Z" fill="#ccc" style="stroke-width: 0.755;"/>
  <path d="M 502.735 158.681 L 279.287 158.681 C 278.705 158.681 278.342 158.052 278.633 157.548 C 278.768 157.315 279.017 157.171 279.287 157.171 L 502.735 157.171 C 503.316 157.171 503.679 157.8 503.389 158.303 C 503.254 158.537 503.005 158.681 502.735 158.681 Z" fill="#ccc" style="stroke-width: 0.755;"/>
  <path d="M 502.735 184.347 L 279.287 184.347 C 278.705 184.347 278.342 183.718 278.633 183.215 C 278.768 182.981 279.017 182.837 279.287 182.837 L 502.735 182.837 C 503.316 182.837 503.679 183.466 503.389 183.97 C 503.254 184.203 503.005 184.347 502.735 184.347 Z" fill="#ccc" style="stroke-width: 0.755;"/>
  <path d="M 502.735 210.013 L 279.287 210.013 C 278.705 210.013 278.342 209.384 278.633 208.881 C 278.768 208.648 279.017 208.504 279.287 208.504 L 502.735 208.504 C 503.316 208.504 503.679 209.133 503.389 209.636 C 503.254 209.87 503.005 210.013 502.735 210.013 Z" fill="#ccc" style="stroke-width: 0.755;"/>
  <path d="M 321.561 235.68 L 299.669 235.68 C 297.585 235.677 295.897 233.989 295.894 231.905 L 295.894 211.523 C 295.897 209.44 297.585 207.751 299.669 207.749 L 321.561 207.749 C 323.644 207.751 325.333 209.44 325.335 211.523 L 325.335 231.905 C 325.333 233.989 323.644 235.677 321.561 235.68 Z" style="stroke-width: 0.755; fill: rgb(47, 46, 65);"/>
  <path d="M 370.629 235.68 L 348.737 235.68 C 346.653 235.677 344.965 233.989 344.962 231.905 L 344.962 185.857 C 344.965 183.773 346.653 182.085 348.737 182.082 L 370.629 182.082 C 372.712 182.085 374.401 183.773 374.403 185.857 L 374.403 231.905 C 374.401 233.989 372.712 235.677 370.629 235.68 Z" style="stroke-width: 0.755; fill: rgb(47, 46, 65);"/>
  <path d="M 420.452 235.68 L 398.56 235.68 C 396.476 235.677 394.788 233.989 394.785 231.905 L 394.785 160.19 C 394.788 158.107 396.476 156.418 398.56 156.416 L 420.452 156.416 C 422.535 156.418 424.224 158.107 424.226 160.19 L 424.226 231.905 C 424.224 233.989 422.535 235.677 420.452 235.68 Z" style="stroke-width: 0.755; fill: rgb(47, 46, 65);"/>
  <path d="M 471.784 235.68 L 449.892 235.68 C 447.809 235.677 446.12 233.989 446.118 231.905 L 446.118 135.279 C 446.12 133.195 447.809 131.507 449.892 131.505 L 471.784 131.505 C 473.868 131.507 475.556 133.195 475.559 135.279 L 475.559 231.905 C 475.556 233.989 473.868 235.677 471.784 235.68 Z" style="stroke-width: 0.755; fill: rgb(47, 46, 65);"/>
  <path d="M 502.735 235.68 L 279.287 235.68 C 278.705 235.68 278.342 235.051 278.633 234.547 C 278.768 234.314 279.017 234.17 279.287 234.17 L 502.735 234.17 C 503.316 234.17 503.679 234.799 503.389 235.302 C 503.254 235.536 503.005 235.68 502.735 235.68 Z" fill="#3f3d56" style="stroke-width: 0.755;"/>
  <path d="M 600.907 376.503 C 603.512 372.56 609.048 371.93 612.473 375.187 L 636.444 362.816 L 634.953 376.754 L 612.418 386.366 C 608.096 390.346 601.087 388.155 599.801 382.422 C 599.343 380.381 599.743 378.241 600.907 376.503 Z" fill="#ffb8b8" style="stroke-width: 0.755;"/>
  <path d="M 621.533 381.702 C 620.989 381.275 620.588 380.693 620.383 380.032 L 618.476 373.873 C 618.057 372.506 618.535 371.022 619.674 370.158 L 639.103 355.482 L 660.146 316.445 C 665.312 309.791 675.745 311.225 678.924 319.026 C 680.4 322.647 679.832 326.78 677.433 329.868 L 665.462 355.135 C 661.829 362.804 655.535 368.893 647.75 372.268 L 624.98 382.145 C 624.094 382.528 623.087 382.517 622.21 382.115 C 621.969 382.004 621.742 381.866 621.533 381.702 Z" fill="#3f3d56" style="stroke-width: 0.755;"/>
  <circle cx="677.962" cy="281.612" r="18.541" fill="#ffb8b8" style="stroke-width: 0.755;"/>
  <polygon points="670.441 524.836 661.187 524.835 656.785 489.137 670.445 489.138 670.441 524.836" fill="#ffb8b8" style="stroke-width: 0.755;"/>
  <path d="M 654.576 522.19 L 672.424 522.19 C 672.424 522.19 672.424 522.19 672.424 522.19 L 672.424 533.428 C 672.424 533.428 672.424 533.428 672.424 533.428 L 643.338 533.428 C 643.338 533.428 643.338 533.428 643.338 533.428 C 643.338 527.222 648.369 522.19 654.576 522.19 Z" fill="#2f2e41" style="stroke-width: 0.755;"/>
  <polygon points="700.637 524.837 691.382 524.836 686.981 489.138 700.641 489.14 700.637 524.837" fill="#ffb8b8" style="stroke-width: 0.755;"/>
  <path d="M 684.771 522.192 L 702.62 522.192 C 702.62 522.192 702.62 522.192 702.62 522.192 L 702.62 533.43 C 702.62 533.43 702.62 533.43 702.62 533.43 L 673.533 533.43 C 673.533 533.43 673.533 533.43 673.533 533.43 C 673.533 527.223 678.565 522.192 684.771 522.192 Z" fill="#2f2e41" style="stroke-width: 0.755;"/>
  <path d="M 701.313 515.779 L 690.468 515.778 C 688.933 515.776 687.589 514.747 687.188 513.265 L 671.577 455.364 C 671.501 455.083 671.15 454.99 670.945 455.196 C 670.869 455.272 670.829 455.377 670.836 455.485 L 673.989 510.397 C 674.108 512.459 672.374 514.149 670.315 513.977 L 658.126 512.961 C 656.516 512.823 655.224 511.573 655.034 509.968 L 643.929 394.662 L 648.225 397.24 L 688.483 390.405 L 704.681 511.933 C 704.952 513.969 703.368 515.778 701.313 515.779 Z" fill="#2f2e41" style="stroke-width: 0.755;"/>
  <path d="M 657.393 406.832 C 652.951 406.797 648.6 405.572 644.792 403.286 C 643.591 402.575 642.951 401.199 643.179 399.822 C 644.595 391.151 652 346.671 658.736 322.423 C 661.48 312.547 667.547 307.228 676.768 306.613 C 690.257 305.728 702.246 316.281 703.494 330.166 C 705.697 354.661 696.751 389.463 692.802 403.289 C 692.139 405.601 689.348 406.509 687.452 405.03 L 679.404 398.769 C 678.382 397.988 676.948 398.048 675.994 398.911 C 669.211 404.962 662.767 406.833 657.393 406.832 Z" fill="#3f3d56" style="stroke-width: 0.755;"/>
  <polygon points="684.01 342.152 690.803 370.839 680.988 394.995 687.784 371.594 684.01 342.152" opacity="0.2" style="stroke-width: 0.755;"/>
  <path d="M 688.542 296.859 C 690.191 296.89 691.83 296.593 693.364 295.987 C 694.039 295.727 694.74 295.513 695.414 295.253 C 701.363 292.954 705.283 286.618 705.424 280.241 C 705.564 273.864 702.262 267.674 697.359 263.595 C 692.455 259.516 686.104 257.422 679.744 256.937 C 672.893 256.415 665.179 258.152 661.35 263.857 C 660.331 265.376 659.618 267.219 660.222 269.052 C 660.403 269.606 660.726 270.102 661.159 270.491 C 662.868 272.012 664.573 270.869 666.315 270.768 C 668.711 270.629 670.862 272.568 671.636 274.839 C 672.409 277.111 672.068 279.612 671.444 281.928 C 670.968 283.322 670.668 284.77 670.551 286.239 C 670.448 287.736 671.128 289.179 672.346 290.055 C 673.843 290.959 675.809 290.436 677.307 289.533 C 678.804 288.629 680.099 287.373 681.717 286.709 C 683.334 286.044 685.508 286.192 686.45 287.666 C 686.749 288.202 686.951 288.787 687.048 289.393 C 687.892 293.239 687.698 293.013 688.542 296.859 Z" fill="#2f2e41" style="stroke-width: 0.755;"/>
  <path d="M 659.804 498.939 L 543.704 458.506 C 539.556 457.056 537.365 452.522 538.805 448.371 L 568.975 361.741 C 570.037 358.702 573.359 357.096 576.4 358.151 L 696.424 399.951 C 699.516 401.031 701.149 404.41 700.076 407.504 L 669.939 494.04 C 668.489 498.188 663.955 500.379 659.804 498.939 Z" fill="#e6e6e6" style="stroke-width: 0.755;"/>
  <path d="M 553.612 453.527 L 655.133 488.883 C 659.158 490.285 663.558 488.158 664.96 484.132 L 689.322 414.179 C 690.724 410.153 688.597 405.753 684.572 404.351 L 583.051 368.995 C 579.025 367.593 574.625 369.72 573.223 373.746 L 548.861 443.7 C 547.459 447.725 549.586 452.125 553.612 453.527 Z" fill="#fff" style="stroke-width: 0.755;"/>
  <path d="M 579.105 404.379 L 574.077 402.628 C 573.51 402.43 573.21 401.809 573.407 401.241 L 575.158 396.214 C 575.356 395.646 575.976 395.346 576.544 395.543 L 581.572 397.294 C 582.14 397.493 582.44 398.113 582.242 398.681 L 580.491 403.709 C 580.293 404.276 579.673 404.576 579.105 404.379 Z" style="stroke-width: 0.755; fill: rgb(47, 46, 65);"/>
  <path d="M 574.568 417.406 L 569.541 415.655 C 568.973 415.456 568.673 414.836 568.87 414.268 L 570.621 409.24 C 570.82 408.673 571.44 408.373 572.008 408.57 L 577.036 410.321 C 577.603 410.519 577.903 411.14 577.706 411.707 L 575.955 416.735 C 575.757 417.303 575.136 417.603 574.568 417.406 Z" style="stroke-width: 0.755; fill: rgb(129, 129, 129);"/>
  <path d="M 570.032 430.432 L 565.004 428.681 C 564.436 428.483 564.137 427.863 564.334 427.295 L 566.085 422.267 C 566.283 421.699 566.903 421.399 567.471 421.597 L 572.499 423.347 C 573.066 423.546 573.366 424.166 573.169 424.734 L 571.418 429.762 C 571.22 430.329 570.6 430.629 570.032 430.432 Z" fill="#ccc" style="stroke-width: 0.755;"/>
  <path d="M 612.89 413.326 L 588.665 404.889 C 587.872 404.616 587.673 403.587 588.307 403.038 C 588.602 402.781 589.012 402.703 589.381 402.833 L 613.606 411.269 C 614.398 411.543 614.597 412.572 613.964 413.121 C 613.669 413.377 613.259 413.456 612.89 413.326 Z" fill="#ccc" style="stroke-width: 0.755;"/>
  <path d="M 608.353 426.353 L 584.128 417.916 C 583.336 417.64 583.14 416.611 583.775 416.063 C 584.069 415.809 584.477 415.731 584.844 415.859 L 609.069 424.296 C 609.862 424.57 610.06 425.599 609.427 426.148 C 609.131 426.404 608.722 426.482 608.353 426.353 Z" fill="#ccc" style="stroke-width: 0.755;"/>
  <path d="M 603.816 439.379 L 579.592 430.943 C 578.8 430.667 578.604 429.638 579.238 429.09 C 579.533 428.836 579.94 428.758 580.308 428.886 L 604.533 437.322 C 605.324 437.598 605.521 438.627 604.886 439.175 C 604.592 439.429 604.184 439.507 603.816 439.379 Z" fill="#ccc" style="stroke-width: 0.755;"/>
  <path d="M 668.283 446.437 C 668.46 446.014 668.626 445.583 668.779 445.145 C 672.925 433.239 666.635 420.226 654.729 416.08 L 646.767 438.944 L 668.283 446.437 Z" style="stroke-width: 0.755; fill: rgb(204, 204, 204);"/>
  <path d="M 644.451 440.335 L 652.414 417.471 C 635.819 411.691 619.191 426.043 622.482 443.304 C 625.774 460.565 646.517 467.79 659.82 456.309 C 662.499 453.996 664.603 451.093 665.968 447.828 L 644.451 440.335 Z" fill="#3f3d56" style="stroke-width: 0.755;"/>
  <path d="M 672.957 407.537 C 672.573 402.827 676.541 398.915 681.245 399.364 L 692.473 374.836 L 699.902 386.724 L 688.101 408.194 C 687.156 413.993 680.288 416.594 675.739 412.877 C 674.119 411.553 673.113 409.623 672.957 407.537 Z" fill="#ffb8b8" style="stroke-width: 0.755;"/>
  <path d="M 692.395 398.899 C 691.704 398.899 691.028 398.688 690.46 398.295 L 685.158 394.625 C 683.985 393.808 683.445 392.346 683.808 390.962 L 690.04 367.425 L 682.507 323.722 C 682.456 315.298 691.544 309.978 698.865 314.146 C 702.27 316.085 704.379 319.697 704.393 323.616 L 710.566 350.885 C 712.441 359.161 711.245 367.837 707.202 375.297 L 695.38 397.12 C 694.92 397.968 694.121 398.581 693.183 398.806 C 692.925 398.868 692.66 398.899 692.395 398.899 Z" fill="#3f3d56" style="stroke-width: 0.755;"/>
  <path d="M 749.847 533.852 L 606.417 533.852 C 605.836 533.852 605.473 533.223 605.763 532.72 C 605.898 532.486 606.147 532.342 606.417 532.342 L 749.847 532.342 C 750.428 532.342 750.791 532.971 750.5 533.475 C 750.366 533.708 750.116 533.852 749.847 533.852 Z" fill="#ccc" style="stroke-width: 0.755;"/>
  <polygon points="369.789 524.46 379.044 524.459 383.446 488.762 369.787 488.762 369.789 524.46" fill="#a0616a" style="stroke-width: 0.755;"/>
  <path d="M 367.428 521.438 L 385.654 521.437 L 385.655 521.437 C 392.07 521.437 397.27 526.638 397.27 533.052 L 397.27 533.43 L 367.429 533.431 L 367.428 521.438 Z" fill="#2f2e41" style="stroke-width: 0.755;"/>
  <polygon points="332.799 524.46 342.054 524.459 346.457 488.762 332.798 488.762 332.799 524.46" fill="#a0616a" style="stroke-width: 0.755;"/>
  <path d="M 330.438 521.438 L 348.664 521.437 L 348.665 521.437 C 355.08 521.437 360.28 526.638 360.28 533.052 L 360.28 533.43 L 330.439 533.431 L 330.438 521.438 Z" fill="#2f2e41" style="stroke-width: 0.755;"/>
  <circle cx="371.636" cy="258.781" r="18.541" fill="#a0616a" style="stroke-width: 0.755;"/>
  <path d="M 384.104 516.755 L 366.93 516.755 C 365.038 516.755 363.51 515.209 363.533 513.317 L 364.531 431.765 C 364.542 430.893 363.605 430.336 362.845 430.763 C 362.53 430.939 362.319 431.255 362.275 431.614 L 352.28 513.769 C 352.071 515.473 350.624 516.754 348.907 516.755 L 331.568 516.755 C 329.588 516.755 328.027 515.068 328.181 513.093 L 339.631 366.587 L 339.943 366.553 L 394.77 360.632 L 387.498 513.52 C 387.413 515.332 385.919 516.757 384.104 516.755 Z" fill="#2f2e41" style="stroke-width: 0.755;"/>
  <path d="M 340.299 375.581 C 338.468 375.577 336.97 374.121 336.914 372.291 C 336.614 363.027 336.102 330.974 342.064 307.442 C 345.404 294.243 356.992 284.787 370.593 284.162 C 383.965 283.431 396.302 291.347 401.211 303.807 C 411.232 329.249 420.7 360.609 408.896 365.528 C 393.425 371.974 352.639 374.848 340.507 375.575 C 340.437 375.579 340.368 375.581 340.299 375.581 Z" fill="#3f3d56" style="stroke-width: 0.755;"/>
  <path d="M 411.161 240.041 C 411.453 240.341 411.767 240.617 412.102 240.867 L 410.156 278.254 L 402.06 282.398 L 406.718 295.434 L 421.763 289.489 C 424.26 288.502 425.805 285.986 425.557 283.314 L 421.616 240.904 C 426.505 237.256 425.612 229.684 420.008 227.273 C 414.404 224.863 408.293 229.423 409.007 235.481 C 409.21 237.195 409.966 238.796 411.161 240.041 Z" fill="#a0616a" style="stroke-width: 0.755;"/>
  <path d="M 410.309 279.645 L 416.004 295.829 C 416.693 297.786 415.482 299.897 413.446 300.292 L 396.653 303.544 C 389.789 305.916 382.931 299.969 384.308 292.838 C 384.944 289.546 387.279 286.839 390.442 285.727 L 405.52 277.768 C 407.355 276.801 409.621 277.689 410.309 279.645 Z" fill="#3f3d56" style="stroke-width: 0.755;"/>
  <path d="M 330.851 240.041 C 330.56 240.341 330.245 240.617 329.91 240.867 L 331.857 278.254 L 339.952 282.398 L 335.294 295.434 L 320.249 289.489 C 317.753 288.502 316.207 285.986 316.455 283.314 L 320.397 240.904 C 315.507 237.256 316.401 229.684 322.004 227.273 C 327.608 224.863 333.719 229.423 333.005 235.481 C 332.803 237.195 332.046 238.796 330.851 240.041 Z" fill="#a0616a" style="stroke-width: 0.755;"/>
  <path d="M 333.668 277.61 C 334.588 277.249 335.619 277.307 336.492 277.768 L 351.57 285.727 C 358.422 288.136 360.096 297.058 354.584 301.787 C 352.04 303.97 348.528 304.639 345.359 303.544 L 328.566 300.292 C 326.53 299.897 325.319 297.786 326.008 295.829 L 331.703 279.645 C 332.03 278.713 332.748 277.97 333.668 277.61 Z" fill="#3f3d56" style="stroke-width: 0.755;"/>
  <path d="M 378.837 261.941 C 378.638 257.108 381.316 252.615 385.662 250.491 C 391.298 247.582 394.838 241.376 393.287 235.709 C 391.301 228.455 381.429 223.751 373.429 226.247 C 371.265 227.015 369.177 227.985 367.193 229.145 L 361.967 231.946 C 359.735 233.064 357.582 234.335 355.525 235.749 C 349.249 240.374 345.989 248.049 347.017 255.777 C 348.046 263.151 352.876 269.914 359.486 274.544 C 362.014 276.433 364.934 277.731 368.031 278.342 C 371.199 278.864 374.727 278.271 377.044 276.3 C 380.664 273.221 380.29 268.064 379.119 263.757 C 378.964 263.162 378.87 262.554 378.837 261.941 Z" fill="#2f2e41" style="stroke-width: 0.755;"/>
  <path d="M 441.85 533.852 L 298.42 533.852 C 297.839 533.852 297.476 533.223 297.767 532.72 C 297.902 532.486 298.151 532.342 298.42 532.342 L 441.85 532.342 C 442.431 532.342 442.795 532.971 442.504 533.475 C 442.369 533.708 442.12 533.852 441.85 533.852 Z" fill="#ccc" style="stroke-width: 0.755;"/>
  <path d="M 207.765 396.139 L 89.415 444.691 C 85.183 446.422 80.349 444.4 78.609 440.172 L 42.38 351.863 C 41.112 348.762 42.593 345.22 45.69 343.946 L 168.041 293.751 C 171.195 292.462 174.798 293.968 176.095 297.12 L 212.284 385.332 C 214.015 389.564 211.993 394.399 207.765 396.139 Z" fill="#e6e6e6" style="stroke-width: 0.755;"/>
  <path d="M 93.702 433.98 L 197.191 391.524 C 201.295 389.841 203.257 385.149 201.573 381.045 L 172.319 309.736 C 170.635 305.632 165.943 303.67 161.84 305.354 L 58.351 347.81 C 54.247 349.493 52.285 354.185 53.969 358.289 L 83.223 429.598 C 84.907 433.702 89.598 435.664 93.702 433.98 Z" fill="#fff" style="stroke-width: 0.755;"/>
  <rect x="248.11" y="398.673" width="1.645" height="0.274" transform="matrix(0.925172, -0.379549, 0.379549, 0.925172, -210.634537, 55.136806)" fill="#e6e6e6" style="stroke-width: 0.755;"/>
  <path d="M 167.256 331.322 L 164.182 332.583 L 164.078 332.329 L 167.152 331.068 L 167.256 331.322 Z M 161.108 333.844 L 158.034 335.105 L 157.93 334.851 L 161.004 333.59 L 161.108 333.844 Z M 154.961 336.366 L 151.887 337.627 L 151.783 337.373 L 154.857 336.112 L 154.961 336.366 Z M 148.813 338.888 L 145.739 340.149 L 145.635 339.895 L 148.709 338.634 L 148.813 338.888 Z M 142.666 341.41 L 139.592 342.671 L 139.488 342.417 L 142.562 341.156 L 142.666 341.41 Z M 136.518 343.932 L 133.444 345.193 L 133.34 344.939 L 136.414 343.678 L 136.518 343.932 Z M 130.371 346.454 L 127.297 347.715 L 127.193 347.461 L 130.267 346.2 L 130.371 346.454 Z M 124.223 348.976 L 121.149 350.237 L 121.045 349.983 L 124.119 348.722 L 124.223 348.976 Z M 118.076 351.498 L 115.002 352.759 L 114.898 352.505 L 117.972 351.244 L 118.076 351.498 Z M 111.928 354.02 L 108.854 355.281 L 108.75 355.027 L 111.824 353.766 L 111.928 354.02 Z M 105.781 356.542 L 102.707 357.803 L 102.603 357.549 L 105.677 356.288 L 105.781 356.542 Z M 99.633 359.064 L 96.56 360.325 L 96.455 360.071 L 99.529 358.81 L 99.633 359.064 Z M 93.486 361.586 L 90.412 362.847 L 90.308 362.593 L 93.382 361.332 L 93.486 361.586 Z M 87.338 364.108 L 84.264 365.369 L 84.16 365.115 L 87.234 363.854 L 87.338 364.108 Z M 81.191 366.63 L 78.117 367.891 L 78.013 367.637 L 81.087 366.376 L 81.191 366.63 Z M 75.043 369.152 L 71.97 370.413 L 71.865 370.159 L 74.939 368.898 L 75.043 369.152 Z" fill="#e6e6e6" style="stroke-width: 0.755;"/>
  <rect x="145.155" y="440.91" width="1.645" height="0.274" transform="matrix(0.925172, -0.379549, 0.379549, 0.925172, -234.369522, 19.220871)" fill="#e6e6e6" style="stroke-width: 0.755;"/>
  <rect x="207.829" y="442.75" width="1.645" height="0.274" transform="matrix(0.925172, -0.379549, 0.379549, 0.925172, -230.378311, 43.14645)" fill="#e6e6e6" style="stroke-width: 0.755;"/>
  <path d="M 127.02 375.381 L 123.992 376.623 L 123.888 376.369 L 126.916 375.127 L 127.02 375.381 Z M 120.964 377.865 L 117.936 379.107 L 117.832 378.854 L 120.86 377.612 L 120.964 377.865 Z M 114.908 380.35 L 111.88 381.592 L 111.776 381.338 L 114.804 380.096 L 114.908 380.35 Z M 108.852 382.834 L 105.824 384.076 L 105.72 383.823 L 108.748 382.581 L 108.852 382.834 Z M 102.795 385.319 L 99.767 386.561 L 99.663 386.307 L 102.691 385.065 L 102.795 385.319 Z M 96.739 387.803 L 93.711 389.046 L 93.607 388.792 L 96.635 387.55 L 96.739 387.803 Z M 90.683 390.288 L 87.655 391.53 L 87.551 391.277 L 90.579 390.034 L 90.683 390.288 Z M 84.627 392.772 L 81.599 394.015 L 81.495 393.761 L 84.523 392.519 L 84.627 392.772 Z" fill="#e6e6e6" style="stroke-width: 0.755;"/>
  <rect x="154.83" y="464.493" width="1.645" height="0.274" transform="matrix(0.925172, -0.379549, 0.379549, 0.925172, -242.596588, 24.657701)" fill="#e6e6e6" style="stroke-width: 0.755;"/>
  <rect x="182.737" y="466.08" width="1.645" height="0.274" transform="matrix(0.925172, -0.379549, 0.379549, 0.925172, -241.110565, 35.368546)" fill="#e6e6e6" style="stroke-width: 0.755;"/>
  <path d="M 101.841 398.746 L 98.726 400.024 L 98.621 399.77 L 101.737 398.492 L 101.841 398.746 Z M 95.61 401.302 L 92.495 402.58 L 92.391 402.327 L 95.506 401.049 L 95.61 401.302 Z M 89.379 403.858 L 86.264 405.136 L 86.16 404.883 L 89.275 403.605 L 89.379 403.858 Z" fill="#e6e6e6" style="stroke-width: 0.755;"/>
  <rect x="159.407" y="475.651" width="1.645" height="0.274" transform="matrix(0.925172, -0.379549, 0.379549, 0.925172, -246.488937, 27.229965)" fill="#e6e6e6" style="stroke-width: 0.755;"/>
  <rect x="190.548" y="485.121" width="1.645" height="0.274" transform="matrix(0.925172, -0.379549, 0.379549, 0.925172, -247.753021, 39.75819)" fill="#e6e6e6" style="stroke-width: 0.755;"/>
  <path d="M 109.652 417.787 L 106.537 419.065 L 106.433 418.811 L 109.548 417.533 L 109.652 417.787 Z M 103.422 420.343 L 100.306 421.621 L 100.202 421.368 L 103.317 420.089 L 103.422 420.343 Z M 97.191 422.899 L 94.075 424.177 L 93.971 423.924 L 97.087 422.646 L 97.191 422.899 Z" fill="#e6e6e6" style="stroke-width: 0.755;"/>
  <rect x="167.219" y="494.692" width="1.645" height="0.274" transform="matrix(0.925172, -0.379549, 0.379549, 0.925172, -253.131378, 31.619602)" fill="#e6e6e6" style="stroke-width: 0.755;"/>
  <path d="M 98.096 422.755 L 185.796 386.776 C 190.215 384.958 192.328 379.905 190.52 375.481 L 172.8 332.289 L 172.629 332.366 L 151.107 383.824 L 135.145 377.151 C 134.548 376.9 133.868 376.942 133.307 377.266 C 132.891 377.516 132.57 377.896 132.392 378.348 L 121.113 405.314 L 109.442 400.435 C 108.383 399.992 107.165 400.492 106.723 401.551 C 106.648 401.734 99.452 419.389 98.096 422.755 Z" style="stroke-width: 0.755; fill: rgb(47, 46, 65);"/>
  <path d="M 97.826 423.162 L 97.573 423.056 L 106.598 401.476 C 107.095 400.29 108.459 399.731 109.646 400.226 L 121.086 405.01 L 132.301 378.192 C 132.798 377.006 134.162 376.447 135.349 376.942 L 151.081 383.521 L 172.713 331.793 L 172.965 331.898 L 151.228 383.879 L 135.243 377.195 C 134.196 376.757 132.992 377.251 132.554 378.298 L 121.233 405.368 L 109.54 400.479 C 108.493 400.042 107.29 400.536 106.851 401.582 L 97.826 423.162 Z" style="stroke-width: 0.755; fill: rgb(47, 46, 65);"/>
  <circle cx="106.426" cy="396.717" r="1.919" fill="#3f3d56" style="stroke-width: 0.755;"/>
  <circle cx="131.518" cy="373.387" r="1.919" fill="#3f3d56" style="stroke-width: 0.755;"/>
  <circle cx="170.589" cy="329.242" r="1.919" fill="#3f3d56" style="stroke-width: 0.755;"/>
  <path d="M 63.196 394.54 C 67.444 392.426 68.748 386.987 65.922 383.177 L 71.62 327.462 L 59.305 327.462 L 54.777 381.864 C 50.282 385.684 51.609 392.937 57.164 394.919 C 59.142 395.624 61.323 395.487 63.196 394.54 Z" fill="#ffb8b8" style="stroke-width: 0.755;"/>
  <circle cx="74.504" cy="279.292" r="17.423" fill="#ffb8b8" style="stroke-width: 0.755;"/>
  <path d="M 77.784 359.909 C 76.35 359.908 75.094 358.95 74.713 357.568 C 73.317 352.497 69.685 343.922 63.919 332.081 C 58.403 320.734 64.005 307.115 75.908 302.932 C 87.12 298.973 99.387 305.055 103.025 316.376 C 107.495 330.388 107.279 345.399 106.978 351.201 C 106.902 352.638 105.876 353.846 104.472 354.156 L 78.468 359.834 C 78.244 359.884 78.014 359.909 77.784 359.909 Z" style="stroke-width: 0.755; fill: rgb(63, 61, 86);"/>
  <polygon points="102.965 525.355 111.661 525.355 115.799 491.81 102.963 491.81 102.965 525.355" fill="#ffb8b8" style="stroke-width: 0.755;"/>
  <path d="M 101.101 522.87 L 128.434 522.87 C 128.434 522.87 128.434 522.87 128.434 522.87 L 128.434 533.43 C 128.434 533.43 128.434 533.43 128.434 533.43 L 111.661 533.43 C 105.829 533.43 101.101 528.702 101.101 522.87 C 101.101 522.87 101.101 522.87 101.101 522.87 Z" fill="#2f2e41" style="stroke-width: 0.755; transform-box: fill-box; transform-origin: 50% 50%;" transform="matrix(-1, 0.000046, -0.000046, -1, -0.000012, -0.000104)"/>
  <polygon points="16.001 514.084 23.623 518.274 43.41 490.873 32.163 484.689 16.001 514.084" fill="#ffb8b8" style="stroke-width: 0.755;"/>
  <path d="M 11.331 516.94 L 38.664 516.94 C 38.664 516.94 38.664 516.94 38.664 516.94 L 38.664 527.5 C 38.664 527.5 38.664 527.5 38.664 527.5 L 21.891 527.5 C 16.059 527.5 11.331 522.772 11.331 516.94 C 11.331 516.94 11.331 516.94 11.331 516.94 Z" fill="#2f2e41" style="stroke-width: 0.755; transform-box: fill-box; transform-origin: 50% 50%;" transform="matrix(-0.876299, -0.481768, 0.481768, -0.876299, -0.00001, 0.000045)"/>
  <path d="M 102.559 506.736 C 100.955 506.735 99.602 505.544 99.396 503.955 L 88.52 420.143 C 88.344 418.789 86.769 418.133 85.684 418.962 C 85.489 419.111 85.327 419.3 85.208 419.515 L 39.88 501.753 C 39.107 503.141 37.435 503.754 35.948 503.196 L 26.068 499.432 C 24.394 498.794 23.572 496.904 24.248 495.245 L 55.647 418.11 C 55.727 417.914 55.781 417.709 55.808 417.499 C 60.061 384.582 70.882 367.842 74.097 363.496 C 74.573 362.847 74.705 362.008 74.449 361.245 L 74.007 359.919 C 73.647 358.848 73.881 357.667 74.621 356.814 C 86.206 343.619 106.398 350.819 106.601 350.893 L 106.702 350.931 L 106.765 351.017 C 129.407 382.068 121.035 482.921 119.127 502.823 C 118.98 504.368 117.742 505.581 116.195 505.696 L 102.806 506.727 C 102.723 506.733 102.641 506.736 102.559 506.736 Z" fill="#2f2e41" style="stroke-width: 0.755;"/>
  <path d="M 142.238 299.53 C 142.151 299.913 142.094 300.302 142.068 300.694 L 111.595 318.274 L 104.188 314.01 L 96.292 324.347 L 108.671 333.17 C 110.725 334.634 113.499 334.566 115.479 333.004 L 146.902 308.214 C 152.278 310.204 157.792 305.628 156.828 299.978 C 155.863 294.327 149.143 291.84 144.732 295.501 C 143.484 296.536 142.608 297.951 142.238 299.53 Z" fill="#ffb8b8" style="stroke-width: 0.755;"/>
  <path d="M 110.576 319.106 L 100.727 331.871 C 99.537 333.414 97.253 333.539 95.901 332.135 L 84.751 320.557 C 79.372 316.358 80.556 307.91 86.883 305.351 C 89.803 304.17 93.13 304.627 95.624 306.551 L 109.608 314.371 C 111.309 315.322 111.767 317.563 110.576 319.106 Z" style="stroke-width: 0.755; fill: rgb(63, 61, 86);"/>
  <path d="M 72.404 341.283 L 56.538 338.418 C 54.62 338.072 53.457 336.102 54.081 334.255 L 59.224 319.027 C 60.474 312.318 68.519 309.478 73.704 313.916 C 76.097 315.964 77.224 319.129 76.663 322.229 L 76.162 338.242 C 76.1 340.191 74.322 341.629 72.404 341.283 Z" style="stroke-width: 0.755; fill: rgb(63, 61, 86);"/>
  <path d="M 77.261 275.284 C 81.739 278.349 87.619 281.5 92.193 278.236 C 95.131 275.998 96.244 272.092 94.924 268.642 C 92.734 262.379 86.717 259.622 80.964 257.508 C 73.484 254.761 65.339 252.575 57.617 254.543 C 49.895 256.51 43.071 263.987 44.465 271.832 C 45.586 278.142 51.537 283.391 50.693 289.744 C 49.842 296.137 42.653 299.502 36.305 300.644 C 29.958 301.787 22.855 302.154 18.294 306.713 C 12.475 312.529 13.928 322.925 19.403 329.065 C 24.879 335.206 33.142 337.989 41.148 339.882 C 51.757 342.389 63.231 343.706 73.306 339.545 C 83.381 335.385 91.222 324.184 88.303 313.682 C 87.07 309.245 84.166 305.496 81.359 301.846 C 78.552 298.196 75.71 294.379 74.64 289.901 C 73.748 286.169 74.408 281.836 76.883 279.037 C 77.806 278.032 77.976 276.546 77.304 275.358 L 77.261 275.284 Z" fill="#2f2e41" style="stroke-width: 0.755;"/>
  <path d="M 143.667 533.852 L 0.238 533.852 C -0.344 533.852 -0.707 533.223 -0.416 532.72 C -0.281 532.486 -0.032 532.342 0.238 532.342 L 143.667 532.342 C 144.248 532.342 144.612 532.971 144.321 533.475 C 144.186 533.708 143.937 533.852 143.667 533.852 Z" fill="#ccc" style="stroke-width: 0.755;"/>
</svg>