<?xml version="1.0" encoding="utf-8"?>
<svg xmlns="http://www.w3.org/2000/svg" width="751.11894" height="669.03003" viewBox="0 0 751.11894 669.03003" role="img" artist="Katerina Limpitsouni" source="https://undraw.co/">
  <rect id="b93b1ef9-49b5-4354-905b-d9dddde45a10" data-name="Rectangle 338" x="3.82" y="18.246" width="550.849" height="352.788" fill="#e6e6e6" style="stroke-width: 0.854;"/>
  <rect id="ef7485f9-8ecd-46d9-949e-abdd8aa9e360" data-name="Rectangle 339" x="19.571" y="62.494" width="519.346" height="287.668" fill="#fff" style="stroke-width: 0.854;"/>
  <rect id="b4c2a7ec-beab-40bc-b587-23a202562f78" data-name="Rectangle 340" width="550.849" height="23.402" x="3.585" y="17.934" style="stroke-width: 0.854; fill: rgb(47, 46, 65);"/>
  <circle id="bd6d3ebf-cb6f-4fcb-b7cd-ad5a287d3324" data-name="Ellipse 513" cx="20.976" cy="29.899" r="4.338" fill="#fff" style="stroke-width: 0.854;"/>
  <circle id="efb1158e-7a7d-4adb-9063-fc7dc50c76d5" data-name="Ellipse 514" cx="37.439" cy="29.899" r="4.338" fill="#fff" style="stroke-width: 0.854;"/>
  <circle id="b51f9e19-f36b-4f29-afd5-008bb0fc20dd" data-name="Ellipse 515" cx="53.903" cy="29.899" r="4.338" fill="#fff" style="stroke-width: 0.854;"/>
  <rect id="b636d421-4358-445b-b124-1d058e78c733" data-name="Rectangle 341" x="83.471" y="86.155" width="101.576" height="110.201" fill="#e6e6e6" style="stroke-width: 0.854;"/>
  <rect id="ab9c902d-64a9-4a2b-a9ec-6dc7022c80f6" data-name="Rectangle 342" x="228.455" y="86.155" width="101.576" height="110.201" fill="#e6e6e6" style="stroke-width: 0.854;"/>
  <rect id="f4a232af-026e-479b-8040-5c62e5965d9e" data-name="Rectangle 343" x="373.439" y="86.155" width="101.576" height="110.201" fill="#e6e6e6" style="stroke-width: 0.854;"/>
  <rect id="ada16aa4-f84d-4851-87ee-a2852d96226a" data-name="Rectangle 344" x="83.471" y="216.304" width="101.576" height="110.201" fill="#e6e6e6" style="stroke-width: 0.854;"/>
  <rect id="ebfcbe07-3b81-4d69-a4f5-6a8318d20e8d" data-name="Rectangle 345" x="228.455" y="216.304" width="101.576" height="110.201" fill="#e6e6e6" style="stroke-width: 0.854;"/>
  <rect id="ead16b6d-d132-49a9-a42f-1f570e523a46" data-name="Rectangle 346" x="373.439" y="216.304" width="101.576" height="110.201" fill="#e6e6e6" style="stroke-width: 0.854;"/>
  <path id="ab8ff6e3-f37e-4992-8347-ee905fdba816-129" data-name="Path 2643" d="M 253.006 244.626 L 271.565 237.288 L 273.724 273.975 C 273.724 273.975 277.608 285.197 276.313 289.513 C 276.313 289.513 277.176 296.851 275.018 297.282 C 272.86 297.714 266.816 298.577 266.389 298.145 C 265.962 297.713 265.957 296.418 265.957 296.418 C 265.957 296.418 261.641 299.439 261.209 302.892 C 261.209 302.892 243.082 308.503 242.65 303.324 C 242.219 298.144 251.714 293.828 251.714 293.828 L 259.051 282.606 L 253.006 244.626 Z" fill="#fff" style="stroke-width: 0.854;"/>
  <path id="e647835b-1773-4993-9de9-376235a5ef39-130" data-name="Path 2644" d="M 292.285 244.626 L 310.841 237.288 L 312.999 273.975 C 312.999 273.975 316.883 285.197 315.589 289.513 C 315.589 289.513 316.452 296.851 314.294 297.282 C 312.136 297.714 306.092 298.577 305.664 298.145 C 305.237 297.713 305.233 296.418 305.233 296.418 C 305.233 296.418 300.916 299.439 300.485 302.892 C 300.485 302.892 282.357 308.503 281.926 303.324 C 281.494 298.144 290.989 293.828 290.989 293.828 L 298.327 282.606 L 292.285 244.626 Z" fill="#fff" style="stroke-width: 0.854;"/>
  <path id="ee50e840-b8e9-4cc0-9b2e-64e12816c6e5-131" data-name="Path 2645" d="M 294.098 102.954 C 294.098 102.954 290.146 113.997 294.725 118.976 L 290.907 132.094 C 290.907 132.094 304.47 172.782 300.595 178.465 C 300.595 178.465 286.129 185.698 257.192 175.881 L 268.946 130.285 L 267.267 111.039 L 269.592 101.997 L 274.758 101.484 C 274.758 101.484 271.659 113.109 277.342 114.918 C 283.025 116.726 288.57 101.775 288.57 101.775 L 294.098 102.954 Z" fill="#3f3d56" style="stroke-width: 0.854;"/>
  <path id="b668efb4-5504-4326-941b-9be143c4d030-132" data-name="Path 2646" d="M 111.598 174.234 L 116.585 176.274 L 140.387 144.992 L 147.867 181.714 L 152.854 180.808 C 156.053 149.148 158.664 116.856 155.461 101.583 L 136.986 100.789 L 128.6 127.541 L 124.519 145.676 L 111.598 174.234 Z" fill="#fff" style="stroke-width: 0.854;"/>
  <path id="b699d661-049e-451c-8a7e-64343ac1c335-133" data-name="Path 2647" d="M 414.273 101.333 C 414.273 101.333 407.467 110.794 407.799 114.613 C 408.132 118.431 412.447 180.68 412.447 180.68 L 422.574 181.179 L 419.583 136.359 L 422.073 124.241 L 428.215 180.68 L 440.665 181.013 L 429.544 107.807 L 427.386 101.334 L 414.273 101.333 Z" fill="#fff" style="stroke-width: 0.854;"/>
  <path id="a4f25674-ecb7-42aa-ae9a-d508200b11eb-134" data-name="Path 2648" d="M 452.74 253.762 C 450.933 251.593 447.826 250.421 444.843 249.787 C 444.929 249.516 435.771 247.624 435.616 248.013 L 432.163 245.263 L 421.554 250.771 L 415.593 246.713 L 412.824 247.696 C 412.937 247.207 404.228 248.716 404.228 248.716 C 402.565 248.776 400.44 248.88 398.061 249.063 C 389.732 249.703 389.09 271.277 389.09 271.277 C 392.922 269.709 397.009 268.854 401.148 268.752 L 403.399 294.555 C 414.979 293.562 427.123 294.717 439.711 297.545 L 445.614 277.262 L 459.36 271.916 C 459.36 271.916 457.012 258.887 452.74 253.762 Z" fill="#3f3d56" style="stroke-width: 0.854;"/>
  <path id="b6d7fb25-d94e-4ba0-9382-3f72a4c565e4-135" data-name="Path 2649" d="M 157.753 241.475 C 156.263 239.688 153.704 238.722 151.246 238.2 C 151.32 237.976 143.771 236.418 143.642 236.739 L 140.797 234.473 L 132.057 239.012 L 127.146 235.668 L 124.864 236.478 C 124.957 236.076 117.781 237.318 117.781 237.318 C 116.414 237.368 114.659 237.453 112.7 237.604 C 105.837 238.132 105.309 255.906 105.309 255.906 C 108.467 254.615 111.834 253.909 115.245 253.826 L 117.1 305.87 C 126.641 305.052 136.647 306.005 147.016 308.335 L 151.879 260.839 L 163.206 256.434 C 163.206 256.434 161.272 245.7 157.753 241.475 Z" fill="#fff" style="stroke-width: 0.854;"/>
  <path id="abb48a01-b3b6-4bc9-9e6f-5cc93133d8eb-136" data-name="Path 2682" d="M 643.91 255.328 L 692.611 255.328 L 692.611 229.269 C 692.611 210.524 672.319 198.809 656.085 208.181 C 648.551 212.531 643.91 220.569 643.91 229.269 L 643.91 255.328 Z" fill="#2f2e41" style="stroke-width: 0.854;"/>
  <path id="f1b40e10-dbea-4491-93e9-bf21ee1afe95-137" data-name="Path 2683" d="M 622.17 545.261 L 611.696 545.261 L 606.713 504.855 L 622.172 504.855 L 622.17 545.261 Z" fill="#ffb6b6" style="stroke-width: 0.854;"/>
  <path id="f19e2682-d3fb-40a9-8809-be7b68a78ac9-138" data-name="Path 2684" d="M 624.842 541.841 L 604.213 541.841 C 596.953 541.842 591.068 547.726 591.067 554.986 L 591.067 555.413 L 624.842 555.413 L 624.842 541.841 Z" fill="#2f2e41" style="stroke-width: 0.854;"/>
  <path id="b3618d44-3857-42e4-aed2-10e127155f21-139" data-name="Path 2685" d="M 747.385 531.283 L 738.264 536.432 L 714.06 503.699 L 727.523 496.1 L 747.385 531.283 Z" fill="#ffb6b6" style="stroke-width: 0.854;"/>
  <path id="a172411a-a77d-4e4f-ac70-c8342021cfb1-140" data-name="Path 2686" d="M 748.03 526.991 L 730.067 537.129 C 723.744 540.699 721.513 548.718 725.082 555.04 L 725.292 555.412 L 754.704 538.808 L 748.03 526.991 Z" fill="#2f2e41" style="stroke-width: 0.854;"/>
  <path id="bd1532c7-07e2-44c0-82ff-fc8e0d37942d-141" data-name="Path 2687" d="M 680.44 363.557 L 681.248 367.598 C 681.248 367.598 683.673 370.023 682.461 371.235 C 681.248 372.447 681.652 378.106 681.652 378.106 C 682.331 388.424 695.812 446.403 698.223 457.726 C 698.223 457.726 716.815 469.851 731.364 493.696 C 745.914 517.541 746.316 523.604 746.316 523.604 L 730.153 530.476 L 689.74 481.572 C 689.74 481.572 678.424 474.701 674.381 468.639 C 670.339 462.577 645.277 399.931 645.277 399.931 L 631.129 465.406 C 631.129 465.406 631.937 489.251 628.3 504.609 C 626.063 514.302 624.711 524.177 624.258 534.113 L 605.263 532.093 C 605.263 532.093 606.475 474.701 608.496 468.639 C 608.496 468.639 600.008 398.718 616.983 370.831 L 630.664 334.359 L 644.062 329.202 L 680.44 363.557 Z" fill="#2f2e41" style="stroke-width: 0.854;"/>
  <path id="e2a54528-859f-4f0e-9aca-6130773a8d3b-142" data-name="Path 2688" d="M 668.512 211.289 C 643.011 211.725 643.015 249.657 668.512 250.089 C 694.011 249.653 694.008 211.721 668.512 211.289 Z" fill="#ffb8b8" style="stroke-width: 0.854;"/>
  <path id="aeace49c-5333-476f-965d-52da8fac2318-143" data-name="Path 2689" d="M 648.886 229.682 L 653.22 229.682 L 654.4 226.731 L 653.809 229.682 L 677.515 229.682 L 676.746 223.508 L 682.508 229.682 L 688.255 229.682 L 688.255 226.337 C 688.266 211.184 671.87 201.702 658.742 209.269 C 652.649 212.781 648.893 219.277 648.888 226.309 L 648.888 226.337 L 648.886 229.682 Z" fill="#2f2e41" style="stroke-width: 0.854;"/>
  <path id="aa5a3aa9-e50b-4b43-b42d-0c1415925835-144" data-name="Path 2690" d="M 642.215 261.416 L 690.403 261.807 L 680.222 365.118 C 680.222 365.118 623.867 362.143 623.832 344.942 L 629.111 329.656 L 642.215 261.416 Z" fill="#3f3d56" style="stroke-width: 0.854;"/>
  <path id="aca4d347-909c-4b66-b72e-6bb1477aee43-145" data-name="Path 2693" d="M 692.474 375.105 C 689.32 371.241 690.424 365.466 694.781 363.039 L 692.687 344.851 L 703.429 340.883 L 706.026 366.609 C 708.665 372.22 704.241 378.585 698.062 378.065 C 695.874 377.881 693.855 376.812 692.474 375.105 Z" fill="#ffb6b6" style="stroke-width: 0.854;"/>
  <path id="eab38d24-ad2d-4cbe-aaaa-db975580c866-146" data-name="Path 2694" d="M 684.067 270.707 L 690.407 261.844 C 690.407 261.844 694.747 260.881 699.873 266.862 C 705 272.843 707.99 347.602 707.99 347.602 L 689.193 351.874 L 678.086 298.902 L 684.067 270.707 Z" fill="#3f3d56" style="stroke-width: 0.854;"/>
  <polygon points="577.853 351.779 579.251 418.197 622.248 440.919 700.552 426.936 702.475 357.896 652.835 340.417 577.853 351.779" fill="#fff" style="stroke-width: 0.854;"/>
  <path d="M 622.136 441.636 L 578.573 418.615 L 577.153 351.19 L 652.902 339.713 L 653.064 339.77 L 703.175 357.415 L 701.223 427.514 L 622.136 441.636 Z M 579.929 417.778 L 622.36 440.202 L 699.881 426.358 L 701.774 358.377 L 652.769 341.122 L 578.552 352.367 L 579.929 417.778 Z" fill="#cacaca" style="stroke-width: 0.854;"/>
  <polygon points="621.289 369.787 621.12 369.72 577.599 352.416 578.106 351.141 621.459 368.377 702.381 357.216 702.569 358.576 621.289 369.787" fill="#cacaca" style="stroke-width: 0.854;"/>
  <rect x="754.616" y="465.855" width="1.373" height="71.842" transform="matrix(0.999926, -0.012164, 0.012164, 0.999926, -139.539551, -87.550827)" fill="#cacaca" style="stroke-width: 0.854;"/>
  <polygon points="615.789 366.349 600.1 359.989 675.625 347.955 691.313 354.314 615.789 366.349" fill="#cacaca" style="stroke-width: 0.854;"/>
  <rect x="719.756" y="462.464" width="1.373" height="19.81" transform="matrix(0.395457, -0.918485, 0.918485, 0.395457, -131.816864, 850.507141)" fill="#cacaca" style="stroke-width: 0.854;"/>
  <rect x="727.995" y="485.122" width="1.373" height="19.81" transform="matrix(0.395457, -0.918485, 0.918485, 0.395457, -147.647293, 871.773071)" style="stroke-width: 0.854; fill: rgb(47, 46, 65);"/>
  <polygon points="338.623 444.053 340.02 510.471 383.018 533.194 461.321 519.211 463.244 450.171 413.605 432.692 338.623 444.053" fill="#fff" style="stroke-width: 0.854;"/>
  <path d="M 382.906 533.911 L 339.343 510.89 L 337.923 443.465 L 413.672 431.987 L 413.833 432.044 L 463.945 449.689 L 461.993 519.788 L 382.906 533.911 Z M 340.698 510.053 L 383.13 532.476 L 460.651 518.633 L 462.544 450.652 L 413.539 433.396 L 339.321 444.641 L 340.698 510.053 Z" fill="#cacaca" style="stroke-width: 0.854;"/>
  <polygon points="382.058 462.061 381.89 461.995 338.369 444.691 338.875 443.415 382.229 460.652 463.151 449.491 463.338 450.851 382.058 462.061" fill="#cacaca" style="stroke-width: 0.854;"/>
  <rect x="515.386" y="558.129" width="1.373" height="71.842" transform="matrix(0.999926, -0.012164, 0.012164, 0.999926, -140.679657, -90.453934)" fill="#cacaca" style="stroke-width: 0.854;"/>
  <polygon points="372.758 457.06 360.87 452.263 436.394 440.229 448.281 445.026 372.758 457.06" fill="#cacaca" style="stroke-width: 0.854;"/>
  <rect x="480.526" y="554.738" width="1.373" height="19.81" transform="matrix(0.395457, -0.918485, 0.918485, 0.395457, -361.194672, 686.561768)" fill="#cacaca" style="stroke-width: 0.854;"/>
  <rect x="488.765" y="577.397" width="1.373" height="19.81" transform="matrix(0.395457, -0.918485, 0.918485, 0.395457, -377.025085, 707.827698)" style="stroke-width: 0.854; fill: rgb(47, 46, 65);"/>
  <polygon points="413.321 453.159 414.944 530.261 464.857 556.638 555.755 540.406 557.987 460.261 500.364 439.971 413.321 453.159" style="stroke-width: 0.854; fill: rgb(47, 46, 65);"/>
  <path d="M 464.726 557.47 L 414.157 530.746 L 412.509 452.477 L 500.441 439.153 L 500.628 439.219 L 558.799 459.702 L 556.533 541.076 L 464.726 557.47 Z M 415.73 529.775 L 464.986 555.805 L 554.976 539.735 L 557.173 460.82 L 500.286 440.789 L 414.132 453.843 L 415.73 529.775 Z" fill="#3f3d56" style="stroke-width: 0.854;"/>
  <polygon points="463.743 474.065 463.548 473.987 413.026 453.9 413.614 452.419 463.941 472.428 557.877 459.472 558.095 461.051 463.743 474.065" fill="#3f3d56" style="stroke-width: 0.854;"/>
  <rect x="597.044" y="570.019" width="1.594" height="83.397" transform="matrix(0.999926, -0.012164, 0.012164, 0.999926, -140.888489, -89.458015)" fill="#3f3d56" style="stroke-width: 0.854;"/>
  <polygon points="453.755 468.295 439.146 462.691 526.817 448.721 541.427 454.325 453.755 468.295" fill="#3f3d56" style="stroke-width: 0.854;"/>
  <rect x="556.577" y="566.082" width="1.594" height="22.997" transform="matrix(0.395457, -0.918485, 0.918485, 0.395457, -327.03421, 764.335815)" fill="#3f3d56" style="stroke-width: 0.854;"/>
  <rect x="566.141" y="592.385" width="1.594" height="22.997" transform="matrix(0.395457, -0.918485, 0.918485, 0.395457, -345.410767, 789.022156)" fill="#fff" style="stroke-width: 0.854;"/>
  <path id="af1e2e82-f248-43bd-a869-489ddf745161-147" data-name="Path 2691" d="M 602.231 362.761 C 606.746 360.642 608.248 354.958 605.369 350.885 L 615.128 335.395 L 607.162 327.169 L 593.687 349.237 C 588.873 353.145 590.094 360.799 595.885 363.015 C 597.946 363.803 600.24 363.712 602.231 362.762 L 602.231 362.761 Z" fill="#ffb6b6" style="stroke-width: 0.854;"/>
  <path id="ed6195a6-5e50-4e12-8380-54bfefa6b2ae-148" data-name="Path 2692" d="M 649.62 265.488 L 642.629 260.881 C 642.629 260.881 637.233 262.091 631.495 273.128 C 625.757 284.165 602.617 333.51 602.617 333.51 L 612.129 343.165 L 637.504 304.453 L 649.62 265.488 Z" fill="#3f3d56" style="stroke-width: 0.854;"/>
</svg>